<?xml version="1.0" encoding="utf-8"?>
<!-- Generator: Adobe Illustrator 25.4.1, SVG Export Plug-In . SVG Version: 6.00 Build 0)  -->
<svg version="1.1" id="Layer_1" xmlns="http://www.w3.org/2000/svg" xmlns:xlink="http://www.w3.org/1999/xlink" x="0px" y="0px"
	 viewBox="0 0 342.3 197.9" style="enable-background:new 0 0 342.3 197.9;" xml:space="preserve">
<style type="text/css">
	.st0{display:none;}
	.st1{display:inline;}
	.st2{fill:url(#SVGID_1_);}
	.st3{fill:url(#SVGID_00000183929677695945770700000015751254014369447081_);}
	.st4{fill:url(#SVGID_00000098219291365490981750000007292108210963022752_);}
	.st5{fill:#612F97;}
	.st6{fill:url(#SVGID_00000070812566304486171210000001278450290767025837_);}
	.st7{fill:url(#SVGID_00000024721608455728611660000017608715869875587001_);}
	.st8{fill:#7438B4;}
	.st9{fill:url(#SVGID_00000150062079165858949280000012293242838155661475_);}
	.st10{fill:url(#SVGID_00000101081791411714967420000013760815500740980915_);}
	.st11{fill:url(#SVGID_00000016042373828587074300000007279182809240155801_);}
	.st12{fill:#F2CFA1;}
	.st13{fill:#FFDFAE;}
	.st14{fill:url(#SVGID_00000052099412829943551930000004751171302678130102_);}
	.st15{fill:url(#SVGID_00000155109134891260439740000002629636111836052651_);}
	.st16{fill:url(#SVGID_00000124841133238324451040000013742292194147153855_);}
	.st17{fill:#F5BF77;}
	.st18{fill:#FFCD80;}
	.st19{fill:url(#SVGID_00000153697557885674591410000001760595486327137158_);}
	.st20{fill:url(#SVGID_00000173851946045647585430000002003087037216422810_);}
	.st21{fill:#5B2497;}
	.st22{fill:url(#SVGID_00000158029731738331319540000008494649035320102025_);}
	.st23{fill:url(#SVGID_00000034775190118520846480000015848076139443161740_);}
	.st24{fill:url(#SVGID_00000068641336908315812920000007863033108470229152_);}
	.st25{fill:url(#SVGID_00000073685013708611159030000015488679305000010910_);}
	.st26{fill:url(#SVGID_00000003806328319242581390000009516439464743182782_);}
	.st27{fill:#F2C07F;}
	.st28{fill:#FFD18A;}
	.st29{fill:url(#SVGID_00000019668802486007006910000001547445372181910149_);}
	.st30{fill:url(#SVGID_00000164501940505140861560000004626244786722797998_);}
	.st31{fill:url(#SVGID_00000120548732385133439900000009325533541871698816_);}
	.st32{fill:#F2CD9D;}
	.st33{fill:#FFDDAA;}
	.st34{fill:url(#SVGID_00000140006242623057428790000008426614104458519197_);}
	.st35{fill:url(#SVGID_00000051381048446774519990000003389978140794745997_);}
	.st36{fill:url(#SVGID_00000131352968022112916280000005510926753832398753_);}
	.st37{fill:url(#SVGID_00000135668398936900542360000009797431219679881885_);}
	.st38{fill:url(#SVGID_00000057119911837107312440000001892830358716453270_);}
	.st39{fill:#F5BC6F;}
	.st40{fill:#FFCA78;}
	.st41{fill:#FFD069;}
	.st42{fill:#FFDBD0;}
	.st43{fill:#AA68D9;}
	.st44{fill:#671ABA;}
	.st45{fill:#E0B7AE;}
	.st46{fill:#9658CC;}
	.st47{fill:#E2B352;}
	.st48{fill:#490C99;}
	.st49{opacity:0.72;fill:#F0F0F0;}
	.st50{opacity:0.72;fill:#E1E1E1;}
	.st51{fill:#8CC73E;}
	.st52{opacity:0.6;}
	.st53{opacity:0.3;}
	.st54{opacity:0.5;}
	.st55{fill:#1A2E35;}
	.st56{fill:#00DFBF;}
	.st57{opacity:0.7;}
	.st58{fill:#FAFAFA;}
	.st59{fill:#E1E1E1;}
	.st60{fill:#F0F0F0;}
	.st61{opacity:0.4;}
	.st62{fill:#FFFFFF;}
	.st63{opacity:0.15;}
	.st64{fill:#96CC50;}
	.st65{opacity:0.5;fill:#FFFFFF;}
	.st66{fill:#375A64;}
	.st67{fill:#2B454E;}
	.st68{opacity:0.4;fill:#FFFFFF;}
	.st69{opacity:0.2;}
	.st70{opacity:0.1;}
	.st71{fill:#E7E7E7;}
	.st72{fill:#FFAAA8;}
	.st73{fill:#800000;}
	.st74{fill:#FF9090;}
	.st75{fill:#91CA47;}
	.st76{opacity:0.15;fill:none;stroke:#000000;stroke-miterlimit:10;}
</style>
<g id="Layer_2_00000013886247371485621620000009559040205320099221_" class="st0">
	<g id="Layer_1-2" class="st1">
		
			<linearGradient id="SVGID_1_" gradientUnits="userSpaceOnUse" x1="0" y1="15.98" x2="342.28" y2="15.98" gradientTransform="matrix(1 0 0 -1 0 200)">
			<stop  offset="0" style="stop-color:#B783E6"/>
			<stop  offset="1" style="stop-color:#D5A9F3"/>
		</linearGradient>
		<ellipse class="st2" cx="171.1" cy="184" rx="171.1" ry="13.9"/>
		
			<linearGradient id="SVGID_00000170997484043123371230000010369835138491757988_" gradientUnits="userSpaceOnUse" x1="-15.8668" y1="104.7487" x2="-13.8368" y2="84.0987" gradientTransform="matrix(-1.000000e-02 1 -1 -1.000000e-02 125.9 190.16)">
			<stop  offset="0" style="stop-color:#743CA7"/>
			<stop  offset="1" style="stop-color:#8E57B4"/>
		</linearGradient>
		<path style="fill:url(#SVGID_00000170997484043123371230000010369835138491757988_);" d="M12.1,167c-1-1-1.7-2.3-2-3.7
			c0-0.1,0-0.2,0-0.3c0,0,0,0.1,0,0.1c0,0.4,0.2,0.8,0.5,1.1c0.9,0.8,2.1-0.1,3-0.3c0.8-0.2,1.7,0,2.4,0.3c0.8,0.4,1.3,1.1,2.1,1.6
			c1.1,0.5,2.3,0.9,3.5,0.9c1.2,0.1,2.4,0.4,3.5,0.7c3,0.8,5.8,2.5,8,4.7c0.6,0.5,1.1,1.1,1.5,1.7c0.5,0.7,0.8,1.5,1.2,2.2
			c0.7,1.3,1.7,2.6,1.5,4.2c-0.2,0.8-0.5,1.5-1,2.1c-0.3,0.5-0.6,1.1-0.8,1.6C20.4,177.2,14.4,169.3,12.1,167z"/>
		
			<linearGradient id="SVGID_00000026163861669701133200000008245714772547995805_" gradientUnits="userSpaceOnUse" x1="-25.2598" y1="106.5718" x2="-4.2098" y2="101.2518" gradientTransform="matrix(-1.000000e-02 1 -1 -1.000000e-02 125.9 190.16)">
			<stop  offset="0" style="stop-color:#743CA7"/>
			<stop  offset="1" style="stop-color:#8E57B4"/>
		</linearGradient>
		<path style="fill:url(#SVGID_00000026163861669701133200000008245714772547995805_);" d="M9.9,164.2c0.1-0.3,0.2-0.6,0.2-0.9
			c0.3,1.4,1,2.7,2,3.7c2.3,2.3,8.3,10.3,23.5,16.9c-0.2,0.4-0.4,0.8-0.6,1.2H20.7c-1.1-0.7-2.1-1.5-3.1-2.3c-1-0.7-1.8-1.6-2.6-2.6
			c-0.4-0.5-0.6-1-0.9-1.5s-0.9-0.9-1.2-1.5c-0.4-0.6-0.7-1.2-0.8-1.9c-0.1-0.9-0.3-1.9-0.7-2.7c-0.4-0.7-1.2-1.3-1.4-2.1
			s0.3-1.8,0.3-2.7c-0.1-0.6-0.2-1.2-0.4-1.7C9.7,165.4,9.7,164.8,9.9,164.2z"/>
		<path class="st5" d="M36,185c-2.2-1.2-4.5-2.4-6.7-3.7c-1.5-0.9-2.8-2.1-4.3-3.1c-2-1.2-4-2.6-5.9-4c-1.4-1.1-2.7-2.4-3.9-3.8
			c-1.7-2-3.7-3.7-5.2-5.8c0-0.1,0.1-0.1,0.1-0.1c3.4,3.1,6.3,6.7,10,9.5c2,1.4,4.2,2.4,6.1,3.9c1.5,1.4,3.2,2.6,4.9,3.6
			c2.8,1.3,5.8,2.2,8.6,3.5L36,185z"/>
		
			<linearGradient id="SVGID_00000089552002429333626850000004076222608760331698_" gradientUnits="userSpaceOnUse" x1="-317.1997" y1="89.7567" x2="-313.9997" y2="57.1666" gradientTransform="matrix(-0.48 0.88 -0.88 -0.48 -43.75 481.94)">
			<stop  offset="0" style="stop-color:#8846C4"/>
			<stop  offset="1" style="stop-color:#A565D1"/>
		</linearGradient>
		<path style="fill:url(#SVGID_00000089552002429333626850000004076222608760331698_);" d="M42.9,184.5c-0.3,0.2-0.5,0.3-0.8,0.5H40
			c-14.5-20.8-17-36.5-18.5-41.5c-0.6-2.2-0.7-4.6-0.1-6.8c0.1-0.2,0.2-0.3,0.2-0.5c0,0.1,0,0.1,0,0.2c-0.3,0.6-0.3,1.3-0.1,2
			c0.7,1.8,2.7,1.5,4,2c1.2,0.5,2.2,1.3,2.9,2.4c0.7,1.2,1,2.7,1.7,3.9c1,1.6,2.3,2.9,3.9,4c1.5,1.2,2.8,2.4,4.1,3.8
			c3.4,3.7,5.9,8.2,7.3,13.1c0.4,1.2,0.7,2.4,0.8,3.6c0.1,1.3,0.1,2.8,0.1,4.1c0,2.4,0.5,5.1-0.8,7.2C44.9,183.3,44,184,42.9,184.5z
			"/>
		
			<linearGradient id="SVGID_00000041280496121439063590000006244236586966007481_" gradientUnits="userSpaceOnUse" x1="-331.6681" y1="93.0371" x2="-297.2481" y2="84.3271" gradientTransform="matrix(-0.48 0.88 -0.88 -0.48 -43.75 481.94)">
			<stop  offset="0" style="stop-color:#8846C4"/>
			<stop  offset="1" style="stop-color:#A565D1"/>
		</linearGradient>
		<path style="fill:url(#SVGID_00000041280496121439063590000006244236586966007481_);" d="M40,185H26.4c-1.5-1.8-2.8-3.8-3.9-5.8
			c-1.6-2.9-2.9-5.9-4.1-8.9c-0.8-1.8-1.3-3.7-1.7-5.7c-0.2-0.9-0.1-1.9-0.2-2.8s-0.5-2-0.6-3c-0.1-1.1,0-2.3,0.2-3.4
			c0.5-1.4,0.9-2.9,1-4.4c0-1.4-0.7-2.8-0.4-4.1s1.6-2.3,2.1-3.6c0.3-0.9,0.4-1.9,0.6-2.8c0.2-1,0.6-1.9,1.3-2.6
			c0.3-0.3,0.7-0.7,0.9-1.1c-0.6,2.2-0.5,4.6,0.1,6.8C23,148.5,25.5,164.2,40,185z"/>
		<path class="st8" d="M38.7,185c-1.5-2.4-2.9-4.9-4.3-7.5s-2.3-5.2-3.5-7.8c-1.6-3.5-3.7-6.6-5-10.3c-1.1-2.7-1.9-5.6-2.5-8.4
			c-0.9-4.2-2.4-8.2-3-12.4c0-0.1,0.1-0.1,0.2,0c2.3,7.2,3.8,14.6,6.8,21.4c1.6,3.6,3.8,6.7,5.3,10.3c1.2,3,2.2,6.3,4,9
			c1.3,2,2.8,3.9,4.2,5.7L38.7,185z"/>
		
			<linearGradient id="SVGID_00000015347843857509514800000015338669446568089230_" gradientUnits="userSpaceOnUse" x1="-393.68" y1="37.52" x2="-357.46" y2="37.52" gradientTransform="matrix(-1 0 0 -1 -334.21 200)">
			<stop  offset="0" style="stop-color:#FFF9EB"/>
			<stop  offset="1" style="stop-color:#FFDCA7"/>
		</linearGradient>
		<polygon style="fill:url(#SVGID_00000015347843857509514800000015338669446568089230_);" points="63,139.9 66.3,185 30.1,185 
			33.4,139.9 		"/>
		
			<linearGradient id="SVGID_00000176739687036417299650000011942332262584133042_" gradientUnits="userSpaceOnUse" x1="-403.04" y1="37.52" x2="-366.83" y2="37.52" gradientTransform="matrix(-1 0 0 -1 -334.21 200)">
			<stop  offset="0" style="stop-color:#FFF9EB"/>
			<stop  offset="1" style="stop-color:#FFDCA7"/>
		</linearGradient>
		<polygon style="fill:url(#SVGID_00000176739687036417299650000011942332262584133042_);" points="65.6,139.9 68.8,185 32.6,185 
			35.9,139.9 		"/>
		
			<linearGradient id="SVGID_00000144313483696662164300000011914729810287697336_" gradientUnits="userSpaceOnUse" x1="497.36" y1="37.52" x2="533.57" y2="37.52" gradientTransform="matrix(1 0 0 -1 -461.73 200)">
			<stop  offset="0" style="stop-color:#FFF9EB"/>
			<stop  offset="1" style="stop-color:#FFDCA7"/>
		</linearGradient>
		<polygon style="fill:url(#SVGID_00000144313483696662164300000011914729810287697336_);" points="38.9,139.9 35.6,185 71.8,185 
			68.6,139.9 		"/>
		<path class="st12" d="M38.5,139.9c0-5.6,4.5-10.1,10.1-10.1s10.1,4.5,10.1,10.1h1c-0.2-6.1-5.3-10.9-11.4-10.7
			c-5.9,0.2-10.6,4.9-10.7,10.7H38.5z"/>
		<path class="st13" d="M43.3,139.9c0-5.6,4.5-10.1,10.1-10.1s10.1,4.5,10.1,10.1h1c-0.2-6.1-5.3-10.9-11.4-10.7
			c-5.9,0.2-10.6,4.9-10.7,10.7H43.3z"/>
		
			<linearGradient id="SVGID_00000047766295084513416550000005532672078873597864_" gradientUnits="userSpaceOnUse" x1="-421.68" y1="27.695" x2="-387.42" y2="27.695" gradientTransform="matrix(-1 0 0 -1 -346.24 200)">
			<stop  offset="0" style="stop-color:#FFECBC"/>
			<stop  offset="1" style="stop-color:#FFCA78"/>
		</linearGradient>
		<polygon style="fill:url(#SVGID_00000047766295084513416550000005532672078873597864_);" points="78.8,156.8 81.9,187.8 
			47.7,187.8 50.8,156.8 		"/>
		
			<linearGradient id="SVGID_00000071517748324541914410000011041969274661183120_" gradientUnits="userSpaceOnUse" x1="-430.54" y1="27.695" x2="-396.28" y2="27.695" gradientTransform="matrix(-1 0 0 -1 -346.24 200)">
			<stop  offset="0" style="stop-color:#FFECBC"/>
			<stop  offset="1" style="stop-color:#FFCA78"/>
		</linearGradient>
		<polygon style="fill:url(#SVGID_00000071517748324541914410000011041969274661183120_);" points="81.2,156.8 84.3,187.8 50,187.8 
			53.2,156.8 		"/>
		
			<linearGradient id="SVGID_00000156576386506570421480000001076259728538091926_" gradientUnits="userSpaceOnUse" x1="526.65" y1="27.695" x2="560.91" y2="27.695" gradientTransform="matrix(1 0 0 -1 -473.76 200)">
			<stop  offset="0" style="stop-color:#FFECBC"/>
			<stop  offset="1" style="stop-color:#FFCA78"/>
		</linearGradient>
		<polygon style="fill:url(#SVGID_00000156576386506570421480000001076259728538091926_);" points="56,156.8 52.9,187.8 87.2,187.8 
			84.1,156.8 		"/>
		<path class="st17" d="M55.6,156.8c0.2-5.3,4.6-9.4,9.8-9.2c5,0.2,9.1,4.2,9.2,9.2h0.9c-0.2-5.8-5-10.3-10.8-10.2
			c-5.5,0.2-10,4.6-10.2,10.2H55.6z"/>
		<path class="st18" d="M60.1,156.8c0.2-5.3,4.6-9.4,9.8-9.2c5,0.2,9.1,4.2,9.2,9.2h1c0-5.8-4.7-10.5-10.5-10.5s-10.5,4.7-10.5,10.5
			l0,0H60.1z"/>
		
			<linearGradient id="SVGID_00000118399537216059389540000011014659994130737544_" gradientUnits="userSpaceOnUse" x1="-282.4384" y1="318.7188" x2="-280.2084" y2="296.0288" gradientTransform="matrix(0.91 0.41 0.41 -0.91 427.22 553.66)">
			<stop  offset="0" style="stop-color:#6E2FA7"/>
			<stop  offset="1" style="stop-color:#8849B4"/>
		</linearGradient>
		<path style="fill:url(#SVGID_00000118399537216059389540000011014659994130737544_);" d="M299,135.3c-0.5-1.5-1.5-2.8-2.8-3.7
			c-0.1,0-0.2-0.1-0.3-0.2l0.1,0.1c0.4,0.3,0.7,0.5,0.9,1c0.4,1.3-1.1,2-1.6,2.8c-0.5,0.8-0.8,1.6-0.8,2.6c0.1,1,0.5,1.9,0.6,2.8
			c0,1.3-0.2,2.7-0.7,3.9c-0.4,1.3-0.7,2.5-1,3.9c-0.6,3.4-0.2,6.9,1,10.2c0.3,0.8,0.6,1.5,1,2.2c0.5,0.8,1.1,1.5,1.6,2.2
			c1,1.3,1.8,2.9,3.5,3.4c0.8,0.2,1.7,0.1,2.6-0.1c0.7-0.1,1.3-0.1,2-0.1C305.5,148.3,300.3,138.6,299,135.3z"/>
		
			<linearGradient id="SVGID_00000111894233441195185410000010077742578923669162_" gradientUnits="userSpaceOnUse" x1="-291.5393" y1="320.9622" x2="-268.4093" y2="315.1122" gradientTransform="matrix(0.91 0.41 0.41 -0.91 427.22 553.66)">
			<stop  offset="0" style="stop-color:#6E2FA7"/>
			<stop  offset="1" style="stop-color:#8849B4"/>
		</linearGradient>
		<path style="fill:url(#SVGID_00000111894233441195185410000010077742578923669162_);" d="M313.3,160.7l-3.1,4.6
			c-0.9,0.6-1.9,1-2.9,1.1c-0.7,0.1-1.4,0.1-2.1,0.1c0.3-18.1-4.9-27.8-6.1-31.1c-0.5-1.5-1.5-2.8-2.8-3.7c0.3,0.1,0.7,0.2,1,0.2
			c0.7,0.1,1.3,0.4,1.9,0.8c0.5,0.5,1,0.9,1.5,1.2c0.9,0.5,2,0.4,2.8,0.9s1,1.6,1.5,2.3c0.7,0.8,1.5,1.4,2.4,1.9
			c0.6,0.5,1.2,1,1.6,1.7c0.4,0.6,0.5,1.3,0.9,1.9s0.7,1,1,1.6c0.6,1.2,1.1,2.5,1.4,3.8c0.6,2.2,1,4.4,1.2,6.6c0.3,2,0.3,4-0.1,6
			C313.3,160.6,313.3,160.6,313.3,160.7z"/>
		<path class="st21" d="M305.5,159.1c0.5,4,0.7,7.9,0.9,11.9l-1.8,2.6c-0.4-4.2,0.3-8.4,0.2-12.6c-0.2-2.2-0.6-4.4-1.3-6.5
			c-0.6-2.6-0.5-5.2-1.1-7.8c-1-5-3.3-9.6-4.9-14.4c0-0.1,0.1-0.1,0.1-0.1c1.4,2.5,2.2,5.3,3.4,7.9c0.8,1.8,1.5,3.7,2,5.6
			c0.6,2.5,1,5.1,1.3,7.7C304.7,155.3,305.3,157.1,305.5,159.1z"/>
		
			<linearGradient id="SVGID_00000127763346538235328500000001300104076862316204_" gradientUnits="userSpaceOnUse" x1="-8.9644" y1="351.0507" x2="-6.7444" y2="328.4907" gradientTransform="matrix(0.1719 0.9851 0.9851 -0.1719 -21.6371 238.0046)">
			<stop  offset="0" style="stop-color:#743CA7"/>
			<stop  offset="1" style="stop-color:#8E57B4"/>
		</linearGradient>
		<path style="fill:url(#SVGID_00000127763346538235328500000001300104076862316204_);" d="M332.4,160.1c0.9-1.3,1.4-2.8,1.4-4.4
			c0-0.1,0-0.2,0-0.4c0,0,0,0.1,0,0.1c0.1,0.5-0.1,0.9-0.3,1.3c-0.8,1-2.2,0.2-3.2,0.2c-0.9,0-1.8,0.3-2.6,0.8
			c-0.8,0.6-1.2,1.5-2,2.1c-1.1,0.8-2.3,1.3-3.6,1.6c-1.3,0.4-2.5,0.8-3.7,1.4c-3.1,1.4-5.8,3.7-7.8,6.5c-0.5,0.6-0.9,1.3-1.3,2.1
			c-0.4,0.8-0.6,1.8-0.9,2.6c-0.5,1.5-1.4,3.1-0.9,4.8c0.3,0.8,0.8,1.5,1.5,2.1c0.4,0.5,0.9,1,1.2,1.6
			C325.3,172.7,330.4,163,332.4,160.1z"/>
		
			<linearGradient id="SVGID_00000137850567589036460270000016588419616906978459_" gradientUnits="userSpaceOnUse" x1="-18.5595" y1="353.937" x2="4.4405" y2="348.117" gradientTransform="matrix(0.1719 0.9851 0.9851 -0.1719 -21.6371 238.0046)">
			<stop  offset="0" style="stop-color:#743CA7"/>
			<stop  offset="1" style="stop-color:#8E57B4"/>
		</linearGradient>
		<path style="fill:url(#SVGID_00000137850567589036460270000016588419616906978459_);" d="M319.5,186H314c-1-0.4-1.8-1-2.5-1.8
			c-0.4-0.5-0.9-1.1-1.2-1.7c15.1-9.8,20.2-19.5,22.2-22.4c0.9-1.3,1.4-2.8,1.4-4.4c0.1,0.3,0.2,0.7,0.4,1c0.3,0.6,0.4,1.3,0.4,2
			c-0.1,0.6-0.2,1.3-0.2,1.9c0.1,1,0.8,1.9,0.8,2.8s-0.8,1.7-1.1,2.5c-0.2,1-0.3,2-0.2,3.1c0,0.8-0.2,1.5-0.5,2.2
			c-0.3,0.6-0.8,1.1-1.1,1.8s-0.4,1.2-0.7,1.8c-0.6,1.2-1.4,2.2-2.3,3.2c-1.5,1.7-3,3.2-4.7,4.7c-1.5,1.4-3.2,2.5-5.1,3.2L319.5,186
			z"/>
		<path class="st5" d="M316.5,178.7c-3,2.6-6.1,5-9.4,7.4H304c3.2-2.7,7-4.4,10.5-6.8c1.7-1.4,3.3-3,4.6-4.7c1.8-1.9,4-3.4,5.9-5.3
			c3.5-3.6,6-8,9.1-12c0-0.1,0.1,0,0.1,0.1c-1.3,2.6-3.1,4.8-4.6,7.2c-1,1.7-2.2,3.3-3.5,4.8c-1.7,2-3.8,3.5-5.6,5.4
			C319.1,175.9,317.9,177.4,316.5,178.7z"/>
		
			<linearGradient id="SVGID_00000136390552392482778940000012313017975765098667_" gradientUnits="userSpaceOnUse" x1="-188.59" y1="33.435" x2="-156.83" y2="33.435" gradientTransform="matrix(1 0 0 -1 423.58 200)">
			<stop  offset="0" style="stop-color:#FFF0CA"/>
			<stop  offset="1" style="stop-color:#FFCD82"/>
		</linearGradient>
		<polygon style="fill:url(#SVGID_00000136390552392482778940000012313017975765098667_);" points="231.9,152.2 229,180.9 
			260.7,180.9 257.9,152.2 		"/>
		
			<linearGradient id="SVGID_00000027595899251450278960000009494641161193141686_" gradientUnits="userSpaceOnUse" x1="-196.8" y1="33.435" x2="-165.04" y2="33.435" gradientTransform="matrix(1 0 0 -1 423.58 200)">
			<stop  offset="0" style="stop-color:#FFF0CA"/>
			<stop  offset="1" style="stop-color:#FFCD82"/>
		</linearGradient>
		<polygon style="fill:url(#SVGID_00000027595899251450278960000009494641161193141686_);" points="229.7,152.2 226.8,180.9 
			258.5,180.9 255.7,152.2 		"/>
		
			<linearGradient id="SVGID_00000015341842922465754060000002820331552595228549_" gradientUnits="userSpaceOnUse" x1="295.2" y1="33.435" x2="326.96" y2="33.435" gradientTransform="matrix(-1 0 0 -1 551.1 200)">
			<stop  offset="0" style="stop-color:#FFF0CA"/>
			<stop  offset="1" style="stop-color:#FFCD82"/>
		</linearGradient>
		<polygon style="fill:url(#SVGID_00000015341842922465754060000002820331552595228549_);" points="253,152.2 255.9,180.9 
			224.1,180.9 227,152.2 		"/>
		<path class="st27" d="M253.4,152.2c0-4.9-4-8.8-8.8-8.8s-8.8,4-8.8,8.8h-0.9c0.2-5.4,4.7-9.6,10-9.4c5.1,0.2,9.2,4.3,9.4,9.4
			H253.4z"/>
		<path class="st28" d="M249.2,152.2c0-4.9-4-8.8-8.8-8.8s-8.8,4-8.8,8.8h-0.9c0-5.4,4.4-9.7,9.7-9.7c5.4,0,9.7,4.3,9.7,9.7H249.2z"
			/>
		
			<linearGradient id="SVGID_00000004505671647643361570000004793951055310485411_" gradientUnits="userSpaceOnUse" x1="-163.37" y1="39.45" x2="-124.99" y2="39.45" gradientTransform="matrix(1 0 0 -1 423.58 200)">
			<stop  offset="0" style="stop-color:#FFF9E9"/>
			<stop  offset="1" style="stop-color:#FFDAA2"/>
		</linearGradient>
		<polygon style="fill:url(#SVGID_00000004505671647643361570000004793951055310485411_);" points="256.4,136.6 252.9,184.5 
			291.3,184.5 287.9,136.6 		"/>
		
			<linearGradient id="SVGID_00000104707688576578998630000014347852739360861073_" gradientUnits="userSpaceOnUse" x1="-173.29" y1="39.45" x2="-134.92" y2="39.45" gradientTransform="matrix(1 0 0 -1 423.58 200)">
			<stop  offset="0" style="stop-color:#FFF9E9"/>
			<stop  offset="1" style="stop-color:#FFDAA2"/>
		</linearGradient>
		<polygon style="fill:url(#SVGID_00000104707688576578998630000014347852739360861073_);" points="253.8,136.6 250.3,184.5 
			288.7,184.5 285.2,136.6 		"/>
		
			<linearGradient id="SVGID_00000162313939526082036510000000715087679183067560_" gradientUnits="userSpaceOnUse" x1="265.63" y1="39.45" x2="304" y2="39.45" gradientTransform="matrix(-1 0 0 -1 551.1 200)">
			<stop  offset="0" style="stop-color:#FFF9E9"/>
			<stop  offset="1" style="stop-color:#FFDAA2"/>
		</linearGradient>
		<polygon style="fill:url(#SVGID_00000162313939526082036510000000715087679183067560_);" points="282,136.6 285.5,184.5 
			247.1,184.5 250.6,136.6 		"/>
		<path class="st32" d="M282.5,136.6c0-5.9-4.8-10.7-10.7-10.7c-5.9,0-10.7,4.8-10.7,10.7h-1.1c0.2-6.5,5.6-11.6,12.1-11.4
			c6.2,0.2,11.2,5.2,11.4,11.4H282.5z"/>
		<path class="st33" d="M277.4,136.6c0-5.9-4.8-10.7-10.7-10.7c-5.9,0-10.7,4.8-10.7,10.7h-1c0-6.5,5.3-11.7,11.7-11.7
			c6.5,0,11.7,5.3,11.7,11.7H277.4z"/>
		
			<linearGradient id="SVGID_00000149362193682400825480000011723280690327226286_" gradientUnits="userSpaceOnUse" x1="-197.8468" y1="300.3945" x2="-194.3468" y2="264.7845" gradientTransform="matrix(0.62 0.79 0.79 -0.62 195.51 500.44)">
			<stop  offset="0" style="stop-color:#8846C4"/>
			<stop  offset="1" style="stop-color:#A565D1"/>
		</linearGradient>
		<path style="fill:url(#SVGID_00000149362193682400825480000011723280690327226286_);" d="M318,136.6c0.3-2.5-0.1-5.1-1.1-7.4
			c-0.1-0.2-0.2-0.3-0.3-0.5c0,0.1,0.1,0.1,0.1,0.2c0.4,0.6,0.5,1.4,0.4,2.1c-0.4,2.1-2.7,2.1-4,2.8c-1.2,0.7-2.2,1.8-2.7,3.1
			c-0.6,1.4-0.6,3.1-1.1,4.5c-0.8,1.9-2,3.7-3.5,5.1c-1.4,1.5-2.6,3.1-3.8,4.8c-3,4.6-4.9,9.9-5.5,15.4c-0.2,1.3-0.3,2.7-0.2,4
			c0.1,1.5,0.4,3,0.6,4.4c0.4,2.6,0.4,5.6,2.2,7.6c0.9,0.9,2.1,1.5,3.3,1.8c0.9,0.4,1.8,0.8,2.6,1.3
			C317.5,160.1,317.4,142.3,318,136.6z"/>
		
			<linearGradient id="SVGID_00000110466081153445813300000010209145019097139128_" gradientUnits="userSpaceOnUse" x1="-213.6171" y1="306.4846" x2="-176.0071" y2="296.9746" gradientTransform="matrix(0.62 0.79 0.79 -0.62 195.51 500.44)">
			<stop  offset="0" style="stop-color:#8846C4"/>
			<stop  offset="1" style="stop-color:#A565D1"/>
		</linearGradient>
		<path style="fill:url(#SVGID_00000110466081153445813300000010209145019097139128_);" d="M326.3,164.8c-0.7,3.5-1.7,7-2.8,10.4
			c-0.9,3.1-2.4,6-4.2,8.6c-0.7,0.8-1.4,1.6-2.2,2.2h-12c12.5-25.8,12.4-43.6,13-49.3c0.3-2.5-0.1-5.1-1.1-7.4
			c0.4,0.4,0.8,0.7,1.2,1.1c0.8,0.7,1.5,1.6,1.9,2.6c0.3,1,0.7,2,1.1,2.9c0.8,1.3,2.3,2,2.9,3.5s0.1,3,0.4,4.5
			c0.2,1.6,1.1,3.1,1.8,4.6c0.5,1.1,0.8,2.4,0.9,3.6c0.1,1.1-0.2,2.2-0.1,3.4s0.3,2,0.3,3.1C327,160.5,326.8,162.7,326.3,164.8z"/>
		<path class="st8" d="M316.2,154.5c-0.8,4.2-2.4,8-3.5,12c-0.8,3-1.4,6.1-2.4,9c-1.2,3.5-2.5,7-3.9,10.4H304
			c1.4-2.6,2.9-5.3,4.1-8.1c1.4-3.2,1.9-6.9,2.7-10.4c0.9-4.1,2.8-7.9,3.9-12.1c2-7.9,2.2-16.2,3.4-24.3c0-0.1,0.1-0.1,0.1-0.1
			c0,0,0.1,0,0.1,0.1c0.1,4.6-0.8,9.3-0.9,13.9C317.3,148.1,316.9,151.3,316.2,154.5z"/>
		
			<linearGradient id="SVGID_00000162332322386830250690000009611004319754809755_" gradientUnits="userSpaceOnUse" x1="-140.62" y1="31.345" x2="-102.24" y2="31.345" gradientTransform="matrix(1 0 0 -1 423.58 200)">
			<stop  offset="0" style="stop-color:#FFEBB8"/>
			<stop  offset="1" style="stop-color:#FFC670"/>
		</linearGradient>
		<polygon style="fill:url(#SVGID_00000162332322386830250690000009611004319754809755_);" points="279.2,151.3 275.7,186 
			314.1,186 310.6,151.3 		"/>
		
			<linearGradient id="SVGID_00000010312892572976758190000017276581181365319610_" gradientUnits="userSpaceOnUse" x1="-150.55" y1="31.345" x2="-112.17" y2="31.345" gradientTransform="matrix(1 0 0 -1 423.58 200)">
			<stop  offset="0" style="stop-color:#FFEBB8"/>
			<stop  offset="1" style="stop-color:#FFC670"/>
		</linearGradient>
		<polygon style="fill:url(#SVGID_00000010312892572976758190000017276581181365319610_);" points="276.5,151.3 273,186 311.4,186 
			307.9,151.3 		"/>
		
			<linearGradient id="SVGID_00000026143210413294735420000011048902544304257960_" gradientUnits="userSpaceOnUse" x1="242.88" y1="31.345" x2="281.26" y2="31.345" gradientTransform="matrix(-1 0 0 -1 551.1 200)">
			<stop  offset="0" style="stop-color:#FFEBB8"/>
			<stop  offset="1" style="stop-color:#FFC670"/>
		</linearGradient>
		<polygon style="fill:url(#SVGID_00000026143210413294735420000011048902544304257960_);" points="304.7,151.3 308.2,186 
			269.8,186 273.3,151.3 		"/>
		<path class="st39" d="M305.2,151.3c0-5.9-4.8-10.7-10.7-10.7c-5.9,0-10.7,4.8-10.7,10.7h-1.1c0-6.5,5.3-11.7,11.7-11.7
			c6.5,0,11.7,5.3,11.7,11.7H305.2z"/>
		<path class="st40" d="M300.1,151.3c-0.2-5.9-5.1-10.5-11-10.3c-5.6,0.2-10.2,4.7-10.3,10.3h-1.1c0.2-6.5,5.6-11.6,12.1-11.4
			c6.2,0.2,11.2,5.2,11.4,11.4H300.1z"/>
		<path class="st41" d="M122.8,40.5c1.3,2.4,3.4,4.2,6,5c2.5,0.8,5.2,1.3,7.9,1.2c1.6,0.1,3.1-0.1,4.6-0.5c1.5-0.4,2.7-1.5,3.4-3
			c0.3-1.5,0.3-3-0.2-4.4c-1-4-1.9-8-2.9-11.9c-0.2-1.5-0.8-3-1.7-4.2c-3.4-4.1-10.3-1.2-13.1,2.2C123.4,28.9,120.3,35.5,122.8,40.5
			z"/>
		<path class="st42" d="M88.4,125.4c-0.3,0.3-0.6,0.6-0.8,0.8c-0.3,0.4-0.6,0.8-0.9,1.2l-2.2,3.6c-0.8,1.2-1.4,2.5-1.7,3.9
			c-0.3,1.3,0.1,2.9,1.3,3.3s2.6-0.8,3.4-2c2.2-3.2,4-6.6,5.4-10.2c0.3-0.7,0.5-1.4,0.5-2.2c0.1-0.8-0.3-1.5-0.9-2
			C89.7,120.2,89.4,124.2,88.4,125.4z"/>
		<path class="st42" d="M137.5,143c-0.2,0.5-0.5,0.9-0.7,1.3c-0.4,1.3-0.2,2.7,0.5,3.9c1,2.4,2.6,4.5,4.6,6.1
			c0.3,0.3,0.8,0.5,1.2,0.6c1.1,0.1,1.8-0.3,1.7-1.4c-0.3-1.3-0.7-2.6-1.3-3.8c-1.5-3.6-0.2-8.4-2.1-11.8c-0.2-0.4-0.5-0.7-0.8-1
			C136.6,133.8,137.9,142.1,137.5,143z"/>
		<path class="st42" d="M98.8,8.3c-0.5-0.6-1.2-1-2-1c-0.2,0-0.5,0.1-0.7-0.1c-0.2-0.2-0.2-0.5,0-0.7c0.2-0.2,0.4-0.3,0.7-0.4
			c-0.8-0.8-1.9-1.3-3-1.4L90,3.8c0.9-0.8,2.2-1,3.3-0.5l-3.4-1.8c0-0.4,0.6-0.5,1-0.4c1.1,0.3,2.2,0.8,3.2,1.4
			c-0.7-0.4-1.3-0.9-1.9-1.5c-0.3-0.3-0.6-0.8-0.2-1c0.2-0.1,0.4-0.1,0.6,0c0.5,0.2,0.9,0.5,1.3,0.8c0-0.2,0.2-0.4,0.5-0.4
			c0.2,0,0.4,0.1,0.6,0.3c2.2,1.5,3.5,4,5.8,5.3c0.6,0.4,1.3,0.7,1.6,1.3c0.1,0.3,0.2,0.6,0.2,0.9c0.1,1.2,0.6,2.4,1.3,3.4
			c-0.1-0.2-1.3,0.1-1.6,0.1c-0.5-0.1-0.6-0.4-1-0.8C100.5,10.1,99.7,9.2,98.8,8.3z"/>
		<path class="st42" d="M170.1,16.8c0.6-0.5,1.3-0.8,2.1-0.7c0.2,0,0.5,0.1,0.7,0c0.2-0.2,0.3-0.5,0.1-0.7c-0.2-0.2-0.4-0.4-0.6-0.5
			c0.9-0.7,2-1,3.2-1l3.8-0.3c-0.8-0.9-2-1.3-3.2-1l3.7-1.2c0.1-0.4-0.5-0.6-0.9-0.6c-1.2,0.1-2.3,0.4-3.3,0.9
			c0.7-0.3,1.4-0.7,2.1-1.2c0.3-0.2,0.6-0.7,0.3-1c-0.2-0.1-0.4-0.1-0.6,0c-0.5,0.1-1,0.4-1.4,0.6c0-0.2-0.2-0.4-0.4-0.5
			c0,0,0,0,0,0c-0.2,0-0.5,0-0.6,0.2c-2.4,1.1-4,3.5-6.5,4.4c-0.7,0.2-1.3,0.5-1.8,1.1c-0.1,0.3-0.2,0.6-0.3,0.9
			c-0.3,1.2-0.9,2.3-1.8,3.2c0.2-0.2,1.3,0.3,1.6,0.3c0.5,0,0.7-0.3,1.1-0.7C168.2,18.3,169.2,17.5,170.1,16.8z"/>
		<path class="st43" d="M103.9,8.6c3.6,7.3,8.2,14,13.7,20c3.8,4.4,8.2,8.1,13.2,11.1c2.6,1.5,5.5,2.6,8.4,2.4
			c3.1-0.4,5.9-1.8,8-4.1c2.1-2.3,4-4.7,5.7-7.3c4-5.1,8.3-9.9,12.9-14.4c0.4,1.4,1.3,2.5,2.5,3.2c-5.2,8.9-11.2,17.3-18,25
			c-1.7,1.8-3.2,3.7-4.4,5.9c-1.1,2.4-1.9,5-2.3,7.6c-0.9,4.5-1.7,8.9-2.6,13.3c-3.2,1.5-7.1,0.3-10.2-1.4s-6.2-3.8-9.7-4.4
			c1.3-4.3,1.2-8.9,0.8-13.3c-0.3-3.3-0.8-6.8-2.4-9.7c-1.5-2.8-3.9-5-6-7.3c-3.7-4.3-6.8-9.1-9.3-14.2c-1.3-2.5-2.5-5-3.7-7.5
			c-0.9-1.9-1.1-1.6,0.4-2.7C101.2,10.6,104.1,9.1,103.9,8.6z"/>
		<path class="st41" d="M121.3,63.8c-5.7,11.2-10.1,22.3-15.3,33.7c-0.5,1.1-1,2.2-1.7,3.3c-0.5,0.8-1.1,1.5-1.7,2.2
			c-4.4,5.2-8.5,10.5-12.7,15.8c-0.9,1.2-2.9,4-2.9,4s4.1,3.7,6.5,4.4c10.7-12.2,21.9-23.9,33.5-35.2c1.3,4.1,2.2,8.2,3.4,12.4
			c1,3.1,1.9,6.2,2.6,9.4c1.7,9,0.6,18.4,2.3,27.4c2.6,1,5.6,0.8,8.1-0.4c-0.3-9.8,0.1-19.6,0.5-29.4c0.3-4.7,0.4-9.4,0.1-14.1
			c-0.3-3.6-0.9-7.2-1.4-10.8c-0.6-5-1.5-11.1-1.2-16.1c-3.5,1.1-7.2,0.9-10.5-0.7C127.2,67.9,121.2,64.2,121.3,63.8z"/>
		<path class="st44" d="M85.1,127.7c-0.6,0.8-1,1.8-1.6,2.7c-0.9,1.5-2.1,2.8-3,4.2c-1.3,2.3-1.8,5-1.4,7.6c0.1,1,0.6,2,1.4,2.6
			c1.2,0.5,2.6,0.1,3.4-1c0.7-1.1,1.2-2.2,1.6-3.5c0.6-1.6,1.5-3.1,2.6-4.4c0.3-0.3,0.6-0.7,0.5-1.1c-0.1-0.2-0.2-0.4-0.4-0.6
			c-1.1-1.1-2.6-1.7-4.1-1.7c-0.1,0,3.1-6,3.3-6.5C86.5,126.1,85.6,127,85.1,127.7z"/>
		<path class="st44" d="M140.3,156.4c1.7,2.8,3.8,5.8,7,6.3c0.5,0.1,1.1-0.2,1.2-0.7c0-0.1,0-0.2,0-0.3c0.5-4.2-4.3-7.5-4.4-11.7
			c-1.3,0-2.5,0.4-3.6,1c-1-1.3-1.8-2.7-2.5-4.2c-0.5-1-0.8-2-1-3.1c0,0-2.2,1.6-2.5,2.4c-0.5,1.3,1.7,3.8,2.4,5L140.3,156.4z"/>
		<path class="st42" d="M130.9,41.4c0,0.5,0.1,1,0.2,1.5c0.4,1.2,1.3,2.2,2.5,2.6c1.2,0.4,2.6,0.1,3.6-0.8c1.5-1.4,1.5-3.7,1.3-5.7
			c-0.1-1.1-0.1-2.3-0.2-3.4c0-0.5-0.1-1.1-0.3-1.6c-0.3-0.7-0.8-1.3-1.5-1.7c-1.1-0.6-2.4-0.6-3.5-0.2
			C129.1,33.8,130.6,38.2,130.9,41.4z"/>
		<path class="st42" d="M127,26.5c-0.4,1.5-0.5,3.1-0.2,4.6c0.2,2.4,1.2,4.7,2.8,6.6c1.6,1.8,4.1,2.7,6.6,2.2
			c2.2-0.7,3.9-2.4,4.6-4.5c1.2-2.9,1.1-6.2-0.2-9c-1.1-2.4-4.2-5.9-7.2-5.9C130.6,20.4,127.7,24.1,127,26.5z"/>
		<path class="st44" d="M130.6,27.4c-2.2,3-3,3.7-5.7,4.6c-2.1-3.6-1.7-8.1,1-11.2c2.8-3.4,7.3-4.8,11.6-3.6
			c0.8,0.2,1.6,0.6,2.3,1.1c1.4,1.2,1.9,3.1,2.3,4.9c0.5,2.1,1.6,3.9,2.1,6c-1.8,0.7-3.8,0.2-5-1.2c-1.3-1.1-2.1-2.6-2.4-4.2
			C134.3,24,132.1,25.3,130.6,27.4z"/>
		<path class="st44" d="M128.6,16.6c4-2.7,9.5-1.7,12.3,2.3c1.6,2.3,2,5.2,1,7.9c-1.3-1.9-2.8-3.8-4.9-4.7c-2.2-0.8-4.6-0.7-6.7,0.4
			c-2,1-3.8,2.3-5.5,3.7C125,22.4,125.2,19,128.6,16.6z"/>
		<path class="st44" d="M144.2,23.3c1.2,2.6,1.4,5.6,0.4,8.3c0,0.1-3.9-3.6-4.1-4c-1.2-1.7-2.1-3.5-2.6-5.5
			C136.4,16.4,142.9,20.7,144.2,23.3z"/>
		<path class="st44" d="M130.7,38.8c0.5,2.9,0.8,5.9,0.9,8.9c0.1,0.9-0.2,1.8-0.7,2.5c-0.8,0.8-2.1,0.8-3.3,0.7
			c-3.2-0.5-6-1.7-6.9-4.8c-1.2-3.7-1.4-5,0.1-7.9c-1.5-3.1-1.5-6.7,0-9.7c2.3-5.3,3.1-6.4,6.1-6.6c0.3,0,1.4,7.3,1.4,8
			C127.7,33,128.6,36.2,130.7,38.8z"/>
		<path class="st44" d="M122,24.1c1.1-2.4,3.9-5.7,6.4-6.4c0.1,2.4-0.4,6.4-1.7,8.5c-1.3,1.9-2.9,3.5-4.8,4.9
			C120.9,28.8,121,26.3,122,24.1z"/>
		<path class="st44" d="M138.5,38.7c0,0-0.4,6.1-0.1,8.8c0.2,2.2,2.1,3.2,4.1,2.4c2.3-0.9,3.4-2.1,4.8-4.1c2.2-3.1,3.5-8.3,0.5-10.7
			c1.1-3.3,0.1-7.4-1.8-10.4s-3.7-6.4-7.2-6.9c0.8,3.4,0.4,7.4,1.4,10.8C141.3,32,140.7,35.8,138.5,38.7z"/>
		<path class="st45" d="M131.4,39.3c1.5,1.4,5,1.8,6.2-0.2c0,0,0-0.1-0.1-0.1C135.7,40.2,133.3,40.3,131.4,39.3L131.4,39.3
			L131.4,39.3z"/>
		<path class="st46" d="M109.2,26.1c0.4,0.1,0.8,0.1,1.2,0.1c0.4-0.1,0.9-0.3,1.2-0.5c0.3-0.2,0.6-0.5,0.9-0.8
			c0.1-0.1,0.2-0.2,0.3-0.4c0,0,0.1-0.4,0.1-0.4s0-0.1,0-0.1h-0.1c0,0-0.1,0-0.1,0c-0.4,0.5-1,0.9-1.6,1.1c-0.6,0.4-1.3,0.6-2,0.8
			C109.2,26,109.2,26.1,109.2,26.1L109.2,26.1z"/>
		<path class="st46" d="M110.6,27.5c0.6-0.2,1.2-0.5,1.8-1c0.2-0.2,0.4-0.5,0.6-0.8c0.2-0.3,0.3-0.6,0.4-0.9c0-0.1,0-0.1-0.1-0.1
			c0,0,0,0-0.1,0c-0.2,0.2-0.4,0.4-0.5,0.6c-0.2,0.4-0.5,0.7-0.8,1C111.5,26.6,111,27,110.6,27.5C110.6,27.5,110.6,27.5,110.6,27.5
			C110.6,27.5,110.6,27.5,110.6,27.5z"/>
		<path class="st46" d="M155.6,28.9c0.2,0.1,0.2,0.4,0.4,0.5s0.3,0.2,0.4,0.3s0.2,0.2,0.4,0.3c0.6,0.3,1.3,0.4,1.9,0.1
			c0.1,0,0.1-0.1,0.1-0.1c0,0,0-0.1-0.1-0.1c-0.3-0.1-0.6-0.2-0.9-0.3c-0.2,0-0.3-0.1-0.5-0.1c-0.2-0.1-0.3-0.2-0.5-0.4
			c-0.2-0.2-0.4-0.3-0.6-0.4c-0.1-0.1-0.3-0.2-0.4-0.2c-0.1,0-0.2,0.1-0.2,0.2C155.5,28.8,155.5,28.9,155.6,28.9L155.6,28.9z"/>
		<path class="st46" d="M156.2,28.2c0,0.2,0.2,0.3,0.4,0.4c0.4,0.2,0.7,0.3,1.1,0.4c0.7,0.2,1.5,0.1,2.2-0.2c0.1,0,0-0.1,0-0.1
			c-0.3-0.1-0.5-0.1-0.8-0.1c-0.4,0-0.8,0-1.2-0.1c-0.6-0.1-1-0.5-1.6-0.4l0.2,0.1v-0.1c0-0.1-0.2-0.1-0.2-0.1
			C156.3,28.1,156.3,28.1,156.2,28.2L156.2,28.2z"/>
		<path class="st46" d="M128.4,64.6c2.9,0.2,5.6,0.2,7.9-1.8c2-1.8,2.9-4.8,5-6.5c0.1,0,0-0.1-0.1-0.1c-1.7,0.9-2.9,3.2-4.2,4.5
			C134.7,63.1,131.6,64.5,128.4,64.6L128.4,64.6z"/>
		<path class="st46" d="M134.1,65.2c0.7-0.1,1.3-0.3,1.9-0.6c0.5-0.4,1-0.7,1.4-1.2c0.6-0.5,1.8-1.6,1.9-2.4c0-0.1-0.1-0.1-0.2,0
			c-0.6,0.8-1.3,1.5-2.1,2.1c-0.9,0.8-1.9,1.5-3,1.9c-0.1,0-0.1,0.1-0.1,0.1C134,65.2,134,65.2,134.1,65.2L134.1,65.2z"/>
		<path class="st47" d="M100.3,110.8c0.8,0.6,1.9,1,2.9,1c1.6,0.1,2.4,0.2,3.6-0.9c0,0,0.1-0.1,0-0.1s-0.1-0.1-0.1,0
			c-2.1,0.6-4.2,0.5-6.3-0.2C100.3,110.5,100.2,110.7,100.3,110.8z"/>
		<path class="st47" d="M100,111.8c1.1,1.4,3.5,2.6,4.9,1c0.1-0.1,0.1-0.2,0-0.2c0,0-0.1-0.1-0.1,0c-1,0.1-1.7,0.6-2.7,0.1
			c-0.7-0.2-1.4-0.6-2-1c0,0-0.1,0-0.1,0S99.9,111.7,100,111.8C99.9,111.7,99.9,111.7,100,111.8L100,111.8z"/>
		<path class="st47" d="M127.9,90.8c2.2-2.1,3.6-5.2,4.6-7.9c1.1-2.9,2.3-6.3,2.1-9.5c0-0.1-0.1-0.1-0.1,0c-1,2.8-1.2,5.7-2.4,8.4
			C130.9,84.7,129.9,88.2,127.9,90.8L127.9,90.8z"/>
		<path class="st47" d="M128.9,90.9c0,0.4,0.3,0.6,0.5,0.9c0.2,0.4,0.4,0.8,0.6,1.2c0.7,0.8,1.7,1.3,2.8,1.5c0.2,0,0.3-0.3,0.1-0.4
			c-0.4-0.2-0.7-0.4-1-0.7c-0.4-0.2-0.8-0.4-1.1-0.7c-0.3-0.2-0.6-0.5-0.8-0.8c-0.3-0.3-0.8-0.6-0.9-1.1
			C129,90.8,129,90.8,128.9,90.9C128.9,90.8,128.9,90.8,128.9,90.9L128.9,90.9z"/>
		<path class="st47" d="M129.5,90.6c1.7,1.4,3.8,2.3,5.8,1.1c0.1,0,0.1-0.1,0-0.2c0,0-0.1-0.1-0.1-0.1c-1,0.1-1.9,0.1-2.9,0
			c-1-0.3-1.9-0.6-2.8-1C129.5,90.4,129.5,90.5,129.5,90.6L129.5,90.6z"/>
		<path class="st47" d="M118,73.8c4.2,1.6,8.2-0.5,10.2-4.5c0,0,0-0.1-0.1-0.1c-1.5,1.5-2.8,3.1-4.8,3.9
			C121.6,73.7,119.8,74,118,73.8L118,73.8z"/>
		<path class="st47" d="M138.4,72.7c-0.2,1-0.2,2,0.2,2.9c0.3,1.3,1.1,2.9,2.6,3c0.1,0,0.1-0.1,0.1-0.1c0,0,0-0.1,0-0.1
			c-0.5-0.4-1-0.9-1.4-1.5c-0.3-0.6-0.6-1.3-0.8-1.9C138.6,74.3,138.4,73.5,138.4,72.7C138.4,72.7,138.4,72.7,138.4,72.7
			C138.4,72.7,138.3,72.7,138.4,72.7L138.4,72.7L138.4,72.7z"/>
		<path class="st47" d="M138,116.9c1.1,0.2,1.8,1.3,2.9,1.4c0.6,0.1,1.6,0.1,1.9-0.6c0,0,0-0.1-0.1-0.1c-0.4,0-0.7,0-1.1-0.1
			c-0.3,0-0.6,0-0.8-0.1c-0.4-0.1-0.6-0.3-0.9-0.5C139.3,116.6,138.6,116.6,138,116.9L138,116.9L138,116.9z"/>
		<path class="st47" d="M138.4,118.4c0.7,0.5,1.5,0.9,2.4,1.2c0.4,0.1,0.7,0.1,1.1,0.1c0.3-0.1,0.5-0.2,0.7-0.3c0.1,0,0.1-0.2,0-0.2
			c-0.2,0-0.5-0.1-0.7-0.1c-0.3,0-0.6-0.1-0.9-0.2c-0.9-0.1-1.6-0.6-2.5-0.7C138.4,118.2,138.3,118.3,138.4,118.4L138.4,118.4z"/>
		<path class="st47" d="M104.9,101.8c1.4,0,2.7,0.2,4-0.5c1.2-0.7,2.3-1.7,3.1-2.8c0,0,0-0.1,0-0.1c0,0,0,0-0.1,0
			c-1.2,0.7-2.1,1.5-3.3,2.1C107.4,101,106.2,101.4,104.9,101.8L104.9,101.8L104.9,101.8z"/>
		<path class="st48" d="M80.4,137c-0.4,0.9-0.6,1.8-0.6,2.7c-0.4,1.1-0.2,2.4,0.5,3.4c1.5,1.8,3.1,0.1,3.6-1.4l0,0
			c-0.3,0.6-0.7,1-1.2,1.4c-1.4,0.8-2.2-0.7-2.5-1.9C80.1,140.1,80,137.9,80.4,137L80.4,137z"/>
		<path class="st48" d="M135.5,147c2.1,3.1,4,6.4,5.7,9.7c0.6,1.4,1.6,2.6,2.8,3.5c1.1,0.8,2.2,1.8,3.6,1.6 M147.6,161.7
			c-1.8-0.1-3.6-2.4-4.7-3.7c-1.2-1.6-2.4-3.3-3.4-5c-1.2-2.1-2.5-4.1-4-5.9L147.6,161.7z"/>
		<path class="st42" d="M193.8,84.6c-0.8,0.4-1.3,1.2-1.5,2c0,0.3,0,0.6-0.2,0.8c-0.3,0.2-0.6,0.1-0.8-0.1c-0.2-0.2-0.3-0.5-0.3-0.8
			c-1.1,1.6-2,3-2.8,4c-1,1.3-1.6,3-2.1,3c-0.8-0.1,0.3-2.5,1.1-3.7c-1.2,1.8-2.4,3.5-2.7,3.4c-0.5,0-0.4-0.7-0.2-1.1
			c0.5-1.2,1.3-2.3,2.2-3.3c-0.6,0.7-1.3,1.3-2,1.8c-0.4,0.3-1,0.5-1.2,0c-0.1-0.2,0-0.5,0.2-0.6c0.3-0.5,0.7-0.9,1.2-1.3
			c-0.3-0.1-0.4-0.3-0.4-0.6c0.1-0.3,0.2-0.5,0.4-0.7c2.1-2.2,5.2-3.2,7.1-5.5c0.5-0.6,1-1.4,1.8-1.6c0.4-0.1,0.7-0.1,1.1,0
			c1.4,0.1,2.8-0.2,4.1-0.9c-0.2,0.1-0.1,1.5-0.2,1.8c-0.2,0.6-0.6,0.6-1.1,0.9C196.2,83,195,83.8,193.8,84.6z"/>
		<path class="st42" d="M196.9,22.2c-0.2-0.4-0.5-0.9-0.9-1.2c-0.5-0.6-1.1-1.1-1.8-1.4c-1.9-1.1-3.9-1.9-5.8-2.9
			c-0.2-0.1-0.4-0.2-0.5-0.5s0.2-0.5,0.4-0.4c-0.3-0.1-0.5-0.2-0.7-0.3c-0.2-0.2-0.3-0.4-0.2-0.7c0.1-0.2,0.3-0.3,0.5-0.2
			c0,0,0.1,0,0.1,0c-0.4-0.1-0.8-0.4-0.7-0.8c0.1-0.3,0.3-0.5,0.6-0.4c0.3,0,0.5,0.1,0.8,0.2l7.9,3.9l-0.9-1.6
			c-0.1-0.1-0.1-0.3,0-0.4c0.1-0.1,0.1-0.1,0.2-0.1c0.7-0.1,1.5,0.2,1.9,0.8c0.3,0.4,0.4,1,0.7,1.4c0.6,0.7,1.7,0.9,2.1,1.8
			c0.1,0.4,0.2,0.7,0.1,1.1c0.1,1.7,0.6,3.3,1.3,4.8c-0.7,0.4-2.6,1.6-3.3,0.8c-0.3-0.6-0.6-1.3-0.8-1.9
			C197.5,23.5,197.2,22.9,196.9,22.2z"/>
		<path class="st42" d="M185,111.4c0.4,1.1,0.9,2.2,1.5,3.2c0.7,1,1.9,1.5,3.1,1.2c0.7-0.3,1.2-1,1.4-1.7c0.1-0.8,0.1-1.5-0.1-2.3
			c-0.6-2.7-2.2-5-2.9-7.7c-0.2-0.9-0.4-1.9-0.8-2.8c-0.4-0.9-1.2-1.6-2.2-1.7c-1.1,0.1-2.2,0.7-2.8,1.7c-1.2,1.5-2.9,3.5-1.6,5.3
			S183.9,109.2,185,111.4z"/>
		<path class="st42" d="M209.5,169.8c-0.2,0.8-0.5,1.5-0.9,2.2c-1.1,3.3,0.5,6.8,3.7,8.1c0.5,0.2,1.1,0.2,1.7,0
			c0.8-0.4,0.9-1.4,0.9-2.3c0.1-4,0.1-8,0.2-11.9c0.2-1.2-0.1-2.4-0.7-3.4c-1.1-1.2-2.9-1.3-4.1-0.3c-0.3,0.3-0.5,0.6-0.7,0.9
			C208.7,165,210,167.8,209.5,169.8z"/>
		<path class="st44" d="M206.7,88.7c-6.9,7.9-11.1,17.8-12.1,28.2c-1.3-2.6-2.7-5.2-4.1-7.9c-0.1-0.3-0.5-0.5-0.8-0.4
			c-0.1,0-0.1,0.1-0.2,0.1c-1.4,0.6-2.8,1.4-4,2.4c-0.4,0.2-0.6,0.6-0.8,1c-0.1,0.4,0,0.9,0.1,1.3l3.8,13.9c0.5,2.1,1.2,4.2,2.1,6.2
			c0.9,2,2.4,4,4.6,4.4c2.8,0.5,5.3-2,6.7-4.5c3.9-7.1,3.7-16.1,8.4-22.8c0.9,7,0.6,13.8,0.2,20.8l-1.9,34.4
			c2.3,1.2,4.8,1.8,7.4,1.6c1.1-8.4,2.3-16.8,3.7-25.1c0.6-3.8,1.2-7.5,2.1-11.2c1.4-5.6,3.4-11.1,4.3-16.8
			c0.6-4.7,0.9-9.5,0.7-14.3c-2.4-1.4-4.9-3.1-7.3-4.3C215.4,93.3,210.9,90.9,206.7,88.7z"/>
		<path class="st41" d="M201.8,22.7c1.3,3.9,3.7,7.4,5.5,11.1c2,4,3.1,8.4,4.8,12.6s3.7,8.3,7.1,11.3c0.7,0.7,1.6,1.2,2.6,1.5
			c1,0.1,2.1,0.1,3.1-0.2c3.7-0.6,7.6-0.6,11.3,0c1.4,0.1,2.7,0.7,3.7,1.7c0.6,0.9,1,2,0.9,3.2c0.2,5.1-2,10-4.2,14.6
			c-3.6,7.7-7.2,15.5-8.7,23.8c-9.1-0.7-17.5-4.9-23.5-11.8c1.3-3.1,3.1-6,5.4-8.6c-4.7,1.4-9.4,2.4-14.3,3c0-1.2-0.2-4.3-0.2-5.5
			c4.9-1.9,9.9-3.3,14.8-5.2c1.1-0.4,2.8-1,2.8-1s0.3-3.3-0.2-4.3s-1.4-2-2-3c-0.7-1.3-1.4-2.7-1.8-4.1c-2.5-7.3-5-14.7-7.4-22.1
			c-1.2-3.7-2.3-7.3-3.5-11c-0.4-1.2-1.2-4.1-1.2-4.1C198.7,24.3,200.3,23.7,201.8,22.7z"/>
		<path class="st41" d="M183.3,103.7c-0.9,1.6-1.1,3.4-0.6,5.2c-1.8,0.4-3.5,1-5,2c-0.8,0.6-1.7,1.1-2.6,1.6c-1,0.4-2.1,0.3-2.9-0.3
			c-0.7-0.7-1-1.8-0.6-2.7c0.3-0.9,0.8-1.8,1.5-2.5c1.4-1.6,3-3,4.6-4.4c1.9-1.7,3.9-3.3,5.9-4.7c0.4-0.3,0.8-0.5,1.3-0.5
			c0.4,0.1,0.7,0.2,1,0.5c1.1,0.9,2.4,2.5,2.4,4C186.2,101.7,184.5,101.8,183.3,103.7z"/>
		<path class="st41" d="M206.4,174.1c-0.7,0.9-0.8,2.1-0.5,3.1c0.3,0.6,0.6,1.1,1.1,1.6c1.5,1.7,2.6,3.7,3.4,5.8
			c0.3,0.9,0.7,1.7,1.2,2.4c0.8,0.8,1.9,1.4,3,1.6c1.2,0.3,2.4,0.4,3.6,0.4c0.5,0,1.1-0.1,1.5-0.4c1-0.7,0.8-2.3,0-3.2
			s-1.8-1.5-2.6-2.4c-0.7-0.8-1.1-1.8-1.4-2.8c-0.4-1.2-0.7-2.4-0.9-3.6c-1.4,0.7-3.1,0.5-4.4-0.4c-0.9-0.8-1.5-1.8-1.7-3
			c-0.2-0.8-0.1-0.9-0.8-0.5C207.2,173,206.7,173.5,206.4,174.1z"/>
		<path class="st42" d="M211.1,50c-0.1,3.2,1,6.3,3.2,8.6c2.5,2.6,6.7,2.8,8.7-0.6c0.8-1.4,2.3-5.1,2.2-6.7c-0.1-3.9-2.7-8-7.6-8.1
			C214.3,43.1,211.3,46.8,211.1,50z"/>
		<path class="st42" d="M224.4,62.1c1.9-0.3,3.5-1.7,3.9-3.6c0.1-0.3,0.1-0.6,0-1c-0.1-0.3-0.3-0.6-0.6-0.9
			c-0.8-0.8-1.6-1.6-2.4-2.3c-0.8-0.8-1.8-1.3-2.8-1.5c-0.7-0.1-1.4,0-2,0.2c-0.7,0.2-1.5,0.5-2.1,0.9c-1.6,1.2-2.1,4.1-0.8,5.6
			C219.3,61.3,221.8,62.3,224.4,62.1z"/>
		<path class="st44" d="M217.2,43.7c0.4,0.6,2.5,4.9,5.3,6.1c0.1-0.5,0.1-2.1,1.2-2.2c0.3,0,0.6,0.3,0.7,0.6
			c0.1,0.3,0.2,0.6,0.1,0.9c0,1-0.4,2-1.1,2.8c0.6,2,1.6,3.8,3,5.3c0.5,0.6,1.1,1.1,1.8,1.5c0.8,0.2,1.7,0.2,2.6,0.1
			c2.7,0,5.5,0.4,8.1,1.2c0.3-2.2,0.1-4.4-0.7-6.4c-0.8-2-2.4-3.6-4.4-4.4c-0.2-1.7-0.9-3.3-2.2-4.5c-0.5-0.5-1-0.9-1.6-1.2
			c-1.4-1.1-3.1-1.9-4.9-2.2c-0.9-0.3-1.8-0.6-2.6-1.1c-0.9-0.4-1.9-0.6-2.8-0.7c-1,0-2,0.2-2.9,0.6c-3.2,1-6.6,2.7-8,5.8
			c-0.7,1.6-0.9,3.4-0.8,5.2c0,1.4,0.3,2.7,1.1,3.8c-0.7,3.1,0.7,6.3,3.5,7.8c2.9,1.4,6.3,1.1,8.8-0.9c-0.9-0.4-1.8-0.9-2.6-1.4
			c-0.7,0.1-1.4,0-2.1-0.2c-1.2-0.4-2.2-1.2-2.9-2.2C213,57,208.6,48.4,217.2,43.7z"/>
		<path class="st47" d="M211.5,81.1c2.7-0.3,5.1-1.3,7.7-1.7c2.1-0.4,4.2-1.1,6.1-2c2.5-1,5-1.5,7.5-2.4c2.1-0.7,3.3-2.5,4.4-4.2
			c0,0,0-0.1-0.1,0c-0.9,0.8-1.6,1.9-2.6,2.7c-1.3,0.9-2.7,1.6-4.3,1.8c-2.1,0.4-4.1,0.9-6.1,1.6C220.2,78.7,215.9,80.1,211.5,81.1
			L211.5,81.1L211.5,81.1z"/>
		<path class="st47" d="M214.1,72.8c3.7-1.3,7.5-2.4,10.7-4.8c1.6-1.2,3.3-2.2,4.9-3.3c1.9-1.5,3.9-2.9,6.1-3.9c0,0,0-0.1,0-0.1
			c-1.6,0.2-3.2,0.9-4.4,2c-1.9,1.3-3.9,2.3-5.8,3.7C222.1,68.9,218.2,71,214.1,72.8C214.1,72.7,214.1,72.8,214.1,72.8L214.1,72.8z"
			/>
		<path class="st47" d="M219.2,82c1.7,4.4,4.5,8.7,5.3,13.4c0,0.1,0.1,0,0.1,0C225.1,90.4,221.4,86.1,219.2,82L219.2,82L219.2,82z"
			/>
		<path class="st47" d="M218.5,82.8c-0.1,1.2,0.5,2.4,0.7,3.5c0.3,1.2,0.3,2.4,0.2,3.6c0,0.1,0,0.2,0.1,0.2s0.2,0,0.2-0.1
			c1.6-2.2-0.5-5-1-7.2C218.6,82.7,218.5,82.8,218.5,82.8L218.5,82.8z"/>
		<path class="st47" d="M210.4,82.6c-2,2.2-1.2,6.3,1.3,7.7c0.1,0.1,0.3-0.1,0.2-0.2c-0.7-0.9-1.3-1.8-1.7-2.8
			c-0.5-1.5-0.4-3.2,0.3-4.7C210.5,82.7,210.5,82.6,210.4,82.6C210.5,82.6,210.4,82.6,210.4,82.6L210.4,82.6z"/>
		<path class="st47" d="M232.8,78.1c0.8,2-0.1,4.3-0.1,6.3c0,0.2,0.3,0.3,0.4,0.1C234,82.4,233.9,80,232.8,78.1
			C232.9,78,232.8,78,232.8,78.1L232.8,78.1z"/>
		<path class="st48" d="M193,129.2c1.2-3.4,0.6-7.3,1.9-10.6c0-0.1-0.1-0.1-0.1,0c-1.1,1.5-1.2,3.6-1.5,5.3
			C193,125.7,192.9,127.5,193,129.2C192.9,129.3,193,129.3,193,129.2L193,129.2z"/>
		<path class="st48" d="M217.6,100c-0.6,1.2-1.2,2.3-2,3.4c-1.3,2-1.8,5.4-4.1,6.4c0,0,0,0.1,0,0.1c2.5-0.9,3.4-3.6,4.6-5.7
			c0.8-1.3,1.5-2.7,2.1-4.1l-0.3-0.1L217.6,100z"/>
		<path class="st48" d="M202.1,97.1c1.6,0.9,2.6,1.5,4.5,1.4c0.6,0,1.1-0.1,1.7-0.2c0.9-0.3,1.2-0.8,2-1.4c0,0,0-0.1,0-0.1
			c0,0,0,0-0.1,0c-0.8,0.2,0,0-0.8,0.4c-0.9,0.5-1.8,0.7-2.8,0.6C205,97.8,203.5,97.5,202.1,97.1C202.1,97,202,97.1,202.1,97.1
			L202.1,97.1z"/>
		<path class="st48" d="M222.5,102.3c-0.4,1-0.2,2.1,0.4,3c0.8,0.6,1.9,0.8,2.9,0.5 M225.8,105.8c-0.4-0.1-0.9-0.2-1.4-0.3
			c-0.4-0.2-0.7-0.4-1-0.6c-0.3-0.2-0.4-0.8-0.5-1.1s-0.2-1-0.4-1.5L225.8,105.8z"/>
		<path class="st48" d="M191.4,132.8c0-0.8,0.2-1.6,0.5-2.3c0.3-0.4,0.5-0.8,0.6-1.3c0-0.1,0-0.2-0.1-0.2c-0.1,0-0.1,0-0.2,0
			c-1.1,0.9-1.2,2.5-1,3.8C191.3,132.8,191.3,132.9,191.4,132.8C191.4,132.8,191.5,132.8,191.4,132.8L191.4,132.8z"/>
		<path class="st48" d="M192.8,129.4c-0.5,0.6-0.8,1.4-0.7,2.1c0,1,0.5,2,1.3,2.6c0.1,0,0.2,0,0.2-0.1c-0.3-0.7-0.6-1.5-0.9-2.2
			C192.7,131.1,192.7,130.3,192.8,129.4C192.9,129.4,192.9,129.4,192.8,129.4L192.8,129.4z"/>
		<path class="st48" d="M215.2,140.5c0.1,0.5,1.2,1,1.6,1.2c0.9,0.3,1.9,0.1,2.7-0.5c0.1,0,0.1-0.1,0.1-0.1c0,0,0-0.1-0.1-0.1
			c-0.7,0-1.4,0.2-2,0.2c-0.7,0-1.4-0.3-2-0.8c-0.1-0.1-0.2,0-0.2,0.1L215.2,140.5z"/>
		<path class="st48" d="M215.5,142.3c0.3,0.2,0.4,0.5,0.8,0.6c0.3,0.1,0.7,0.1,1.1,0c0.8-0.1,1.4-0.6,1.8-1.2c0.1-0.1,0-0.3-0.2-0.2
			c-0.6,0.2-1,0.6-1.6,0.8c-0.3,0.1-0.6,0.2-0.9,0.2c-0.3,0-0.6-0.2-0.9-0.3C215.5,142.2,215.5,142.2,215.5,142.3L215.5,142.3z"/>
		<path class="st48" d="M185.4,112.6c0.7-0.4,1.3-0.9,2-1.4c0.8-0.6,1.7-1,2.6-1.2c0.1,0,0.1-0.1,0-0.1
			C188.2,109.6,186.6,111.4,185.4,112.6C185.4,112.5,185.4,112.7,185.4,112.6L185.4,112.6z"/>
		<path class="st48" d="M209.7,164.9c1.6,1.2,3.9,2.1,5.9,1.5c0.1,0,0.1,0,0.1-0.1c0-0.1,0-0.1-0.1-0.1c-0.9-0.3-1.8-0.2-2.7-0.5
			c-1.1-0.3-2.1-0.6-3.1-0.9C209.7,164.7,209.6,164.8,209.7,164.9L209.7,164.9z"/>
		<path class="st47" d="M218.9,63.9c-0.5,1.2-0.3,3.4,1.1,4c0.1,0.1,0.3-0.1,0.2-0.2c-0.2-0.5-0.4-1.1-0.7-1.6
			c-0.2-0.7-0.2-1.5-0.5-2.2C219,63.9,218.9,63.8,218.9,63.9C218.9,63.9,218.9,63.9,218.9,63.9L218.9,63.9z"/>
		<path class="st47" d="M219.3,63.7c0.2,0.8,0.5,1.5,1.1,2c0.6,0.5,1.5,0.8,2.3,0.8c0.2,0,0.3-0.3,0.1-0.4c-0.7-0.2-1.4-0.5-2-0.9
			c-0.5-0.5-1-1-1.3-1.6c0-0.1-0.1-0.1-0.2-0.1S219.2,63.7,219.3,63.7L219.3,63.7z"/>
		<path class="st47" d="M206.1,43.2c0.3-0.2,0.8-0.2,1.2-0.4c0.3-0.2,0.7-0.3,1-0.5c0.5-0.4,1.3-0.9,1.2-1.6c0-0.2-0.3-0.2-0.4,0
			c-0.2,0.3-0.4,0.6-0.7,0.8c-0.1,0.2-0.3,0.3-0.5,0.4c-0.2,0.2-0.6,0.3-0.8,0.4C206.8,42.6,206.4,42.9,206.1,43.2
			C206,43.2,206,43.3,206.1,43.2C206.1,43.3,206.1,43.3,206.1,43.2L206.1,43.2z"/>
		<path class="st47" d="M207,44.9c0.3-0.2,0.6-0.2,0.9-0.4s0.3-0.4,0.5-0.5c0.1-0.1,0.2-0.2,0.3-0.3c0.5-0.5,0.9-1.2,1.1-1.8
			c0-0.1,0-0.1-0.1-0.2c0,0-0.1,0-0.1,0c-0.2,0.2-0.4,0.4-0.5,0.7c-0.2,0.4-0.5,0.7-0.8,1c-0.5,0.4-1,0.9-1.4,1.4
			C206.9,44.9,206.9,45,207,44.9z"/>
		<path class="st47" d="M172.5,111.9c-0.8-3.2,4.1-6.3,6.1-8.1c1.2-1.1,2.4-2.1,3.6-3.2c0.2-0.2,3.3-2.6,3.6-1.7c0,0,0.1,0,0.1,0
			v-0.1l0,0c-1-0.2-2.1,0-2.9,0.5c-2.1,1.4-3.8,3.4-5.8,4.8S171.3,109,172.5,111.9C172.5,112,172.6,112,172.5,111.9L172.5,111.9z"/>
		<path class="st47" d="M206.5,175.8c1.9,2,2.9,4.5,4,6.9c0.6,1.6,1.7,3,3.2,3.7c0.7,0.4,6.6,2.2,5.5-0.5c0,0,0-0.1-0.1-0.1
			c0,0-0.1,0-0.1,0.1c0,0,0,0,0,0c0.4,2.4-4.7,0-5.2-0.4c-1.3-0.9-2.4-2.2-3-3.7C209.7,179.6,208.5,177.2,206.5,175.8L206.5,175.8
			L206.5,175.8z"/>
		<path class="st47" d="M245,61.7L245,61.7L245,61.7z"/>
		<path class="st47" d="M219.9,60L219.9,60L219.9,60z"/>
		<path class="st45" d="M219.9,60.1c2.3-0.4,4-2.3,4-4.7c0,0-0.1-0.1-0.1,0c0,0,0,0,0,0c-0.2,0.3-0.4,0.7-0.4,1.1
			c-0.2,0.8-0.6,1.4-1.1,2c-0.4,0.4-0.9,0.7-1.4,1C220.5,59.6,220.2,59.8,219.9,60.1C219.8,60,219.9,60.1,219.9,60.1L219.9,60.1z"/>
	</g>
</g>
<g>
	<ellipse id="Floor_4_" class="st49" cx="171.8" cy="164" rx="121.3" ry="34.2"/>
	<path id="Shadow_43_" class="st50" d="M237,193.4c-8.2-3.9-8.2-10.2,0-14.1c8.2-3.9,21.5-3.9,29.7,0c8.2,3.9,8.2,10.2,0,14.1
		C258.5,197.3,245.2,197.3,237,193.4z"/>
	<path id="Shadow_4_" class="st50" d="M70.3,197.7l-21.6-12.5c-1.2-0.7-1.2-1.8,0-2.5l125.4-72.4c1.2-0.7,3.2-0.7,4.4,0l21.6,12.5
		c1.2,0.7,1.2,1.8,0,2.5L74.7,197.7C73.4,198.4,71.5,198.4,70.3,197.7z"/>
	<g id="Device_1_">
		<g id="XMLID_1341_">
			<g id="XMLID_1346_">
				<path id="XMLID_1347_" class="st51" d="M147.8,175.5l18.5-10.7c1.9-1.1,2.9-2.5,2.9-4c0-1.4,0-2.6,0-2.6l-19.2-10.8
					c-1-0.6-1.8-2-1.8-3.2v-22.9L115.7,140l0,22.9c0,1.2,0.8,2.6,1.8,3.2l16.4,9.4C137.7,177.7,143.9,177.7,147.8,175.5z"/>
			</g>
			<g id="XMLID_1608_" class="st52">
				<path id="XMLID_1609_" d="M147.8,175.5l18.5-10.7c1.9-1.1,2.9-2.5,2.9-4c0-1.4,0-2.6,0-2.6l-19.2-10.8c-1-0.6-1.8-2-1.8-3.2
					v-22.9L115.7,140l0,22.9c0,1.2,0.8,2.6,1.8,3.2l16.4,9.4C137.7,177.7,143.9,177.7,147.8,175.5z"/>
			</g>
			<path id="XMLID_1345_" class="st53" d="M123.5,166.9v2.6l-5.9-3.4c-1-0.6-1.8-2-1.8-3.2V140l6.2-3.6c0.1,1.6,0.3,3.2,0.4,4.8
				l-4.3,2.5v17.9c0,1.2,0.8,2.6,1.8,3.2L123.5,166.9z"/>
			<path id="XMLID_1344_" class="st51" d="M118,161.6c0,1.2,0.8,2.6,1.8,3.2l14.1,8.1c3.8,2.2,10,2.2,13.8,0l18.5-10.7
				c3.8-2.2,3.8-5.8,0-8l-14.1-8.1c-1-0.6-1.8-2-1.8-3.2l0-17.9L118,143.7V161.6z"/>
			<path id="XMLID_1607_" class="st53" d="M118,161.6c0,1.2,0.8,2.6,1.8,3.2l14.1,8.1c3.8,2.2,10,2.2,13.8,0l18.5-10.7
				c3.8-2.2,3.8-5.8,0-8l-14.1-8.1c-1-0.6-1.8-2-1.8-3.2l0-17.9L118,143.7V161.6z"/>
			<path id="XMLID_1343_" class="st54" d="M155.9,148.3L155.9,148.3l-3.8-2.2c-1-0.6-1.8-2-1.8-3.2l0-17.9L118,143.7v17.9
				c0,1.2,0.8,2.6,1.8,3.2l3.7,2.1L155.9,148.3z"/>
			<path id="XMLID_1342_" class="st51" d="M169.2,158.2c0,0,0,1.1,0,2.6c0,1.4-1,2.9-2.9,4l-18.5,10.7c-1.8,1.1-4.2,1.6-6.6,1.6
				v-2.6c2.4,0,4.8-0.6,6.6-1.6l18.5-10.7C168.2,161.1,169.2,159.7,169.2,158.2z"/>
			<path id="XMLID_1610_" class="st54" d="M169.2,158.2c0,0,0,1.1,0,2.6c0,1.4-1,2.9-2.9,4l-18.5,10.7c-1.8,1.1-4.2,1.6-6.6,1.6
				v-2.6c2.4,0,4.8-0.6,6.6-1.6l18.5-10.7C168.2,161.1,169.2,159.7,169.2,158.2z"/>
		</g>
		<path id="XMLID_1340_" class="st51" d="M66,183.8c1.2,0.7,3.2,0.7,4.5-0.1c15.9-9.2,109.3-63.1,125.2-72.3c1.3-0.7,2.3-2.5,2.3-4
			V6.1c0-1.5-1-3.2-2.2-3.9c-1.2-0.7-3.2-0.7-4.5,0.1L66.1,74.6c-1.3,0.7-2.3,2.5-2.3,4l0,101.3C63.8,181.4,64.8,183.1,66,183.8z"/>
		<path id="XMLID_1339_" class="st51" d="M70.4,183.7l125.2-72.3c1.3-0.7,2.3-2.5,2.3-4V6.1c0-1.5-1-2.1-2.3-1.3L70.4,77.1
			c-1.3,0.7-2.3,2.5-2.3,4l0,101.3C68.1,183.9,69.2,184.4,70.4,183.7z"/>
		<path id="XMLID_1338_" class="st54" d="M70.4,183.7l125.2-72.3c1.3-0.7,2.3-2.5,2.3-4V6.1c0-1.5-1-2.1-2.3-1.3L70.4,77.1
			c-1.3,0.7-2.3,2.5-2.3,4l0,101.3C68.1,183.9,69.2,184.4,70.4,183.7z"/>
		<path id="XMLID_1337_" class="st51" d="M70.1,186.3c-1.3,0.6-3,0.5-4.1-0.1c-1.2-0.7-2.2-2.4-2.2-3.9v-9.2l4.3,2.5v9.2
			C68.1,186.2,69,186.8,70.1,186.3z"/>
		<path id="XMLID_1606_" class="st54" d="M70.1,186.3c-1.3,0.6-3,0.5-4.1-0.1c-1.2-0.7-2.2-2.4-2.2-3.9v-9.2l4.3,2.5v9.2
			C68.1,186.2,69,186.8,70.1,186.3z"/>
		<path id="XMLID_1336_" class="st51" d="M68.1,175.6l0,9.2c0,1.5,1,2.1,2.3,1.3l125.2-72.3c1.3-0.7,2.3-2.5,2.3-4v-9.2L68.1,175.6z
			"/>
		<path id="XMLID_1335_" class="st53" d="M68.1,175.6l0,9.2c0,1.5,1,2.1,2.3,1.3l125.2-72.3c1.3-0.7,2.3-2.5,2.3-4v-9.2L68.1,175.6z
			"/>
		<path id="XMLID_1334_" class="st51" d="M72.5,164l0-81.5c0-0.9,0.6-2,1.4-2.4l118.4-68.4c0.8-0.4,1.4-0.1,1.4,0.8l0,81.5
			c0,0.9-0.6,2-1.4,2.4L73.8,164.8C73.1,165.3,72.5,164.9,72.5,164z"/>
		<path id="XMLID_1333_" class="st55" d="M72.5,164l0-81.5c0-0.9,0.6-2,1.4-2.4l118.4-68.4c0.8-0.4,1.4-0.1,1.4,0.8l0,81.5
			c0,0.9-0.6,2-1.4,2.4L73.8,164.8C73.1,165.3,72.5,164.9,72.5,164z"/>
		<path id="XMLID_1332_" class="st56" d="M133,141.1c-1.2,0.7-2.2,2.4-2.2,3.7c0,1.4,1,1.9,2.2,1.2c1.2-0.7,2.2-2.4,2.2-3.7
			C135.2,140.9,134.2,140.4,133,141.1z"/>
		<path id="XMLID_1331_" class="st57" d="M68.8,78.8c-0.4,0.7-0.7,1.5-0.7,2.3v94.5l-4.3-2.5l0-94.5c0-0.7,0.3-1.6,0.7-2.3
			L68.8,78.8z"/>
		<path id="XMLID_1544_" class="st53" d="M197.9,5.7c-0.2-1.2-1.1-1.6-2.3-1L70.4,77.1c-0.6,0.4-1.2,1-1.6,1.7l-4.3-2.5
			c0.4-0.7,1-1.3,1.6-1.7L191.3,2.3c1.3-0.7,3.3-0.8,4.5-0.1C196.9,2.8,197.8,4.3,197.9,5.7z"/>
	</g>
	<g id="Window">
		<g id="Window_2_">
			<g id="Window_3_">
				<g id="XMLID_1920_">
					<path class="st51" d="M204.7,18.2c-0.3-0.2-0.7-0.2-1.2,0.1L85.4,86.5c-0.9,0.5-1.6,1.8-1.6,2.8l0,81c0,0.6,0.3,1.2,0.7,1.4
						c0.3,0.1,1.7,1,2.1,1.2c0.3,0.1,0.6,0.1,0.9-0.1l118.2-68.3c0.9-0.5,1.6-1.8,1.6-2.8V20.4c0-0.5-0.2-0.9-0.5-1.1
						C206.4,19.2,205,18.4,204.7,18.2z"/>
				</g>
				<g id="XMLID_1917_">
					<g id="XMLID_1919_">
						<path class="st58" d="M86.9,172.5c-0.3,0-0.6-0.5-0.6-1v-81c0-0.9,0.6-1.9,1.4-2.4l118.2-68.2c0.2-0.1,0.4-0.2,0.5-0.2
							c0.3,0,0.4,0.4,0.4,0.7v81.4c0,0.9-0.6,1.9-1.4,2.4L87.2,172.5C87.1,172.5,87,172.5,86.9,172.5z"/>
						<path class="st59" d="M206.2,20.3c0,0,0,0.1,0,0.1v81.4c0,0.7-0.5,1.6-1.1,1.9L86.9,172c-0.1-0.1-0.1-0.2-0.1-0.5v-81
							c0-0.7,0.5-1.6,1.1-1.9l118.2-68.2C206.1,20.3,206.2,20.3,206.2,20.3 M206.3,19.2c-0.2,0-0.5,0.1-0.7,0.2L87.4,87.7
							c-0.9,0.5-1.6,1.8-1.6,2.8v81c0,0.8,0.5,1.5,1.1,1.5c0.2,0,0.3,0,0.5-0.2l118.2-68.3c0.9-0.5,1.6-1.8,1.6-2.8V20.4
							C207.2,19.7,206.8,19.2,206.3,19.2L206.3,19.2z"/>
					</g>
					<path id="XMLID_1918_" class="st60" d="M84.4,171.8c0.2,0.1,1.4,0.8,2,1.1c-0.4-0.3-0.6-0.7-0.6-1.4V95.8l-2.1-1.2v75.8
						C83.7,171,84,171.5,84.4,171.8z"/>
				</g>
				<g id="XMLID_1913_">
					<path id="XMLID_1916_" class="st51" d="M207.2,20.4c0-1-0.7-1.4-1.6-0.9L87.4,87.7c-0.9,0.5-1.6,1.8-1.6,2.8l0,5.3l121.4-70.1
						V20.4z"/>
					<g id="XMLID_1915_" class="st61">
						<path class="st62" d="M205.6,19.5L87.4,87.7c-0.4,0.3-0.8,0.7-1.1,1.2l-2.1-1.2c0.3-0.5,0.7-0.9,1.1-1.2l118.2-68.2
							c0.5-0.3,0.9-0.3,1.2-0.1c0.3,0.2,1.6,0.9,2,1.1C206.4,19.2,206,19.2,205.6,19.5z"/>
					</g>
					<path id="XMLID_1914_" class="st63" d="M83.7,94.6l0-5.3c0-0.5,0.2-1.1,0.5-1.6l2.1,1.2c-0.3,0.5-0.5,1.1-0.5,1.6v5.3
						L83.7,94.6z"/>
				</g>
			</g>
		</g>
		<g id="XMLID_985_">
			<g id="XMLID_639_">
				<path id="XMLID_645_" class="st64" d="M182.3,81.5l-70.8,40.9c-0.7,0.4-1.2,1.3-1.2,2v20.3c0,0.8,0.5,1.7,1.2,2l2.1,1.2
					c0.7,0.4,1.7,0.4,2.4,0l70.8-40.9c0.7-0.4,1.2-1.3,1.2-2l0-20.3c0-0.8-0.5-1.7-1.2-2l-2.1-1.2C184,81.1,182.9,81.1,182.3,81.5z"
					/>
				<path id="XMLID_717_" class="st65" d="M187.9,84.5c-0.1-0.6-0.6-0.8-1.2-0.5l-70.8,40.9c-0.3,0.2-0.6,0.5-0.8,0.9l-4.4-2.6
					c0.2-0.4,0.5-0.7,0.8-0.9l70.8-40.9c0.6-0.4,1.7-0.4,2.4,0l2.1,1.2C187.3,83,187.8,83.8,187.9,84.5z"/>
				<path id="XMLID_730_" class="st55" d="M115.7,148c-0.7,0.3-1.6,0.2-2.2-0.1l-2.1-1.2c-0.7-0.4-1.2-1.3-1.2-2v-20.3
					c0-0.4,0.1-0.8,0.3-1.2l4.4,2.6c-0.2,0.4-0.3,0.8-0.3,1.2v20.3C114.8,147.9,115.2,148.2,115.7,148z"/>
				<path id="XMLID_644_" class="st51" d="M115.9,124.9L186.7,84c0.7-0.4,1.2-0.1,1.2,0.7l0,20.3c0,0.8-0.5,1.7-1.2,2l-70.8,40.9
					c-0.7,0.4-1.2,0.1-1.2-0.7v-20.3C114.8,126.2,115.3,125.3,115.9,124.9z"/>
				<path id="XMLID_647_" class="st66" d="M163.5,92.3l-52,30c-0.3,0.2-0.6,0.5-0.8,0.9l4.4,2.6c0.2-0.4,0.5-0.7,0.8-0.9l52-30
					L163.5,92.3z"/>
				<path id="XMLID_652_" class="st67" d="M167.9,94.9l-52,30c-0.7,0.4-1.2,1.3-1.2,2v20.3c0,0.8,0.5,1.1,1.2,0.7l52-30V94.9z"/>
			</g>
			<g id="XMLID_640_">
				<path id="XMLID_1663_" class="st64" d="M127.9,122.4l26.8-15.5c1.1-0.6,2-0.2,2,1c0,1.2-0.9,2.7-2,3.3l-26.8,15.5
					c-1.1,0.6-2,0.2-2-1C125.9,124.5,126.8,123.1,127.9,122.4z"/>
			</g>
			<g id="XMLID_646_">
				<path id="XMLID_986_" class="st58" d="M133.4,127.5C133.5,127.5,133.5,127.5,133.4,127.5c0.1,0,0.1,0.1,0.1,0.1v3
					c0,0.3,0,0.6-0.1,0.9c0,0.3-0.1,0.5-0.2,0.8c-0.1,0.2-0.2,0.4-0.4,0.6c-0.1,0.2-0.3,0.3-0.5,0.4c-0.2,0.1-0.4,0.2-0.5,0.2
					c-0.1,0-0.3-0.1-0.4-0.2c-0.1-0.1-0.2-0.3-0.2-0.5c0-0.2-0.1-0.5-0.1-0.8v-3c0-0.1,0-0.1,0-0.2c0-0.1,0-0.1,0.1-0.1l0.3-0.2
					c0,0,0.1,0,0.1,0c0,0,0,0.1,0,0.1v3c0,0.2,0,0.4,0,0.5c0,0.1,0.1,0.2,0.1,0.3c0.1,0.1,0.1,0.1,0.2,0.1c0.1,0,0.2,0,0.3-0.1
					c0.1-0.1,0.2-0.1,0.3-0.2c0.1-0.1,0.1-0.2,0.2-0.3c0.1-0.1,0.1-0.3,0.1-0.4c0-0.2,0-0.3,0-0.5v-3c0-0.1,0-0.1,0-0.2
					c0-0.1,0-0.1,0.1-0.1L133.4,127.5z"/>
				<path id="XMLID_988_" class="st58" d="M135.5,130.4c0-0.1,0-0.1,0-0.1c0,0-0.1,0-0.1,0c0,0-0.1,0-0.2,0c-0.1,0-0.2,0-0.3,0.1
					c-0.1,0-0.2,0-0.3,0c-0.1,0-0.1-0.1-0.2-0.1c0-0.1-0.1-0.2-0.1-0.3c0-0.1,0-0.2,0-0.4c0-0.1,0-0.3,0.1-0.5
					c0-0.2,0.1-0.3,0.2-0.5c0.1-0.2,0.2-0.3,0.3-0.4c0.1-0.1,0.2-0.2,0.4-0.3c0.1-0.1,0.3-0.1,0.4-0.1c0.1,0,0.2,0,0.3,0.1
					c0.1,0,0.1,0.1,0.2,0.2c0,0.1,0.1,0.2,0.1,0.3c0,0.1,0,0.1,0,0.2s-0.1,0.1-0.1,0.1l-0.3,0.2c0,0-0.1,0-0.1,0c0,0,0,0-0.1-0.1
					c0,0-0.1,0-0.1,0c0,0-0.1,0-0.2,0.1c-0.1,0-0.2,0.1-0.2,0.2c-0.1,0.1-0.1,0.2-0.1,0.3c0,0.1,0,0.1,0,0.1c0,0,0,0,0.1,0
					c0,0,0.1,0,0.2,0c0.1,0,0.2,0,0.3-0.1c0.2,0,0.4,0,0.5,0.1c0.1,0.1,0.2,0.4,0.2,0.7c0,0.1,0,0.3-0.1,0.5s-0.1,0.3-0.2,0.5
					c-0.1,0.2-0.2,0.3-0.3,0.4c-0.1,0.1-0.2,0.2-0.4,0.3c-0.1,0.1-0.3,0.1-0.4,0.1c-0.1,0-0.2,0-0.3-0.1c-0.1-0.1-0.1-0.1-0.2-0.2
					c0-0.1-0.1-0.2-0.1-0.3c0-0.1,0-0.1,0-0.2s0.1-0.1,0.1-0.1l0.3-0.2c0,0,0.1,0,0.1,0c0,0,0,0,0.1,0.1c0,0,0.1,0,0.1,0.1
					c0,0,0.1,0,0.2-0.1c0,0,0.1-0.1,0.1-0.1c0,0,0.1-0.1,0.1-0.1c0,0,0.1-0.1,0.1-0.1C135.5,130.5,135.5,130.4,135.5,130.4z"/>
				<path id="XMLID_990_" class="st58" d="M136.6,129c0-0.3,0-0.5,0.1-0.8c0-0.3,0.1-0.5,0.2-0.8c0.1-0.2,0.2-0.4,0.3-0.6
					c0.1-0.2,0.3-0.3,0.4-0.4c0.2-0.1,0.3-0.1,0.4-0.1c0.1,0,0.2,0.1,0.3,0.2c0.1,0.1,0.2,0.3,0.2,0.5c0,0.2,0.1,0.4,0.1,0.7v0.3
					c0,0.1,0,0.1,0,0.2c0,0.1,0,0.1-0.1,0.1l-1.4,0.8c0,0.1,0,0.2,0,0.3c0,0.1,0.1,0.1,0.1,0.2c0,0,0.1,0,0.2,0c0.1,0,0.1,0,0.2-0.1
					c0.1-0.1,0.2-0.1,0.2-0.2c0.1-0.1,0.1-0.1,0.1-0.2c0-0.1,0.1-0.1,0.1-0.1c0,0,0,0,0.1-0.1l0.3-0.2c0,0,0.1,0,0.1,0
					c0,0,0,0.1,0,0.1c0,0.1,0,0.2-0.1,0.3c0,0.1-0.1,0.3-0.2,0.4c-0.1,0.1-0.2,0.3-0.3,0.4c-0.1,0.1-0.3,0.3-0.4,0.3
					c-0.2,0.1-0.3,0.1-0.4,0.1c-0.1,0-0.2-0.1-0.3-0.2c-0.1-0.1-0.2-0.3-0.2-0.5C136.6,129.5,136.6,129.2,136.6,129z M137.6,127.3
					c-0.1,0-0.1,0.1-0.2,0.2c-0.1,0.1-0.1,0.2-0.1,0.2c0,0.1-0.1,0.2-0.1,0.3c0,0.1,0,0.2,0,0.3l0.9-0.5c0-0.1,0-0.1,0-0.2
					c0-0.1,0-0.1-0.1-0.2c0,0-0.1-0.1-0.1-0.1C137.8,127.2,137.7,127.2,137.6,127.3z"/>
				<path id="XMLID_1008_" class="st58" d="M140.3,125.8c-0.2,0.1-0.3,0.2-0.4,0.4c-0.1,0.2-0.1,0.4-0.1,0.7v1.9c0,0.1,0,0.1,0,0.2
					c0,0.1,0,0.1-0.1,0.1l-0.3,0.2c0,0-0.1,0-0.1,0c0,0,0-0.1,0-0.1v-3.4c0-0.1,0-0.1,0-0.2c0-0.1,0-0.1,0.1-0.1l0.3-0.2
					c0,0,0.1,0,0.1,0c0,0,0,0.1,0,0.1v0.2c0.1-0.2,0.1-0.3,0.2-0.4c0.1-0.1,0.2-0.2,0.3-0.3l0.2-0.1c0,0,0.1,0,0.1,0
					c0,0,0,0.1,0,0.1v0.5c0,0.1,0,0.1,0,0.2c0,0.1,0,0.1-0.1,0.1L140.3,125.8z"/>
				<path id="XMLID_1013_" class="st58" d="M144.3,125.5C144.3,125.5,144.3,125.5,144.3,125.5c0.1,0,0.1,0.1,0.1,0.1v0.5
					c0,0.1,0,0.1,0,0.2c0,0.1,0,0.1-0.1,0.1l-1.8,1c0,0-0.1,0-0.1,0c0,0,0-0.1,0-0.1v-4.8c0-0.1,0-0.1,0-0.2c0-0.1,0-0.1,0.1-0.1
					l0.3-0.2c0,0,0.1,0,0.1,0c0,0,0,0.1,0,0.1v4L144.3,125.5z"/>
				<path id="XMLID_1017_" class="st58" d="M145.9,121.6c0.2-0.1,0.3-0.1,0.4-0.1c0.1,0,0.2,0.1,0.3,0.2c0.1,0.1,0.2,0.2,0.2,0.4
					c0.1,0.2,0.1,0.4,0.1,0.6c0,0,0,0.1,0,0.2c0,0.1,0,0.1,0,0.2c0,0.1,0,0.1,0,0.2c0,0.1,0,0.1,0,0.2c0,0.2,0,0.5-0.1,0.7
					s-0.1,0.4-0.2,0.6c-0.1,0.2-0.2,0.4-0.3,0.5c-0.1,0.2-0.3,0.3-0.4,0.4c-0.2,0.1-0.3,0.1-0.4,0.1c-0.1,0-0.2-0.1-0.3-0.2
					c-0.1-0.1-0.2-0.2-0.2-0.4c-0.1-0.2-0.1-0.4-0.1-0.6c0,0,0-0.1,0-0.2c0-0.1,0-0.1,0-0.2c0-0.1,0-0.1,0-0.2c0-0.1,0-0.1,0-0.2
					c0-0.2,0-0.5,0.1-0.7c0.1-0.2,0.1-0.4,0.2-0.6c0.1-0.2,0.2-0.4,0.3-0.5C145.6,121.8,145.7,121.7,145.9,121.6z M146.4,123
					c0-0.1,0-0.3-0.1-0.3c0-0.1-0.1-0.1-0.1-0.2c0,0-0.1,0-0.2,0c-0.1,0-0.1,0-0.2,0.1c-0.1,0-0.1,0.1-0.2,0.1
					c-0.1,0.1-0.1,0.1-0.2,0.2c0,0.1-0.1,0.2-0.1,0.3c0,0.1-0.1,0.3-0.1,0.4c0,0,0,0.1,0,0.2c0,0.1,0,0.1,0,0.2c0,0.1,0,0.1,0,0.2
					c0,0.1,0,0.1,0,0.1c0,0.1,0,0.3,0.1,0.3c0,0.1,0.1,0.1,0.1,0.2c0,0,0.1,0,0.2,0c0.1,0,0.1,0,0.2-0.1c0.1,0,0.1-0.1,0.2-0.1
					c0.1-0.1,0.1-0.1,0.2-0.2c0-0.1,0.1-0.2,0.1-0.3c0-0.1,0.1-0.3,0.1-0.4c0,0,0-0.1,0-0.1c0-0.1,0-0.1,0-0.2c0-0.1,0-0.1,0-0.2
					C146.4,123.1,146.4,123,146.4,123z"/>
				<path id="XMLID_1020_" class="st58" d="M148.6,124.7c0.1,0,0.1-0.1,0.2-0.2c0.1-0.1,0.1-0.1,0.2-0.2c0.1-0.1,0.1-0.2,0.1-0.3
					c0-0.1,0-0.3,0-0.4v-0.3c0,0.1-0.1,0.1-0.1,0.2c0,0.1-0.1,0.1-0.1,0.2c-0.1,0.1-0.1,0.1-0.2,0.2c-0.1,0.1-0.1,0.1-0.2,0.2
					c-0.1,0.1-0.3,0.1-0.4,0.1c-0.1,0-0.2-0.1-0.3-0.2c-0.1-0.1-0.1-0.3-0.2-0.4c0-0.2-0.1-0.4-0.1-0.6c0-0.1,0-0.2,0-0.3
					c0-0.1,0-0.2,0-0.3c0-0.2,0-0.5,0.1-0.7c0-0.2,0.1-0.5,0.2-0.7c0.1-0.2,0.2-0.4,0.3-0.5c0.1-0.2,0.2-0.3,0.4-0.4
					c0.1,0,0.2-0.1,0.2-0.1c0.1,0,0.1,0,0.2,0c0.1,0,0.1,0,0.1,0.1c0,0,0.1,0.1,0.1,0.1V120c0-0.1,0-0.1,0-0.2c0-0.1,0-0.1,0.1-0.1
					l0.3-0.2c0,0,0.1,0,0.1,0c0,0,0,0.1,0,0.1v3.5c0,0.6-0.1,1.1-0.3,1.5c-0.2,0.4-0.4,0.7-0.8,0.9c-0.1,0.1-0.3,0.1-0.4,0.1
					c-0.1,0-0.2,0-0.3-0.1c-0.1-0.1-0.2-0.1-0.2-0.3c-0.1-0.1-0.1-0.2-0.1-0.4c0-0.1,0-0.1,0-0.2c0-0.1,0.1-0.1,0.1-0.1l0.3-0.2
					c0,0,0.1,0,0.1,0c0,0,0.1,0.1,0.1,0.1c0,0.1,0.1,0.1,0.1,0.1C148.3,124.8,148.4,124.8,148.6,124.7z M148.1,122.1
					c0,0.1,0,0.3,0,0.4c0,0.3,0.1,0.5,0.2,0.6c0.1,0.1,0.2,0.1,0.3,0c0.1-0.1,0.2-0.2,0.3-0.4c0.1-0.2,0.1-0.4,0.2-0.7
					c0-0.1,0-0.2,0-0.3c0-0.1,0-0.2,0-0.3c0-0.2-0.1-0.4-0.2-0.5c-0.1-0.1-0.2-0.1-0.3,0c-0.1,0.1-0.3,0.2-0.3,0.4
					C148.1,121.5,148.1,121.8,148.1,122.1z"/>
				<path id="XMLID_1023_" class="st58" d="M150.8,117.4C150.9,117.4,150.9,117.4,150.8,117.4c0.1,0,0.1,0.1,0.1,0.1v0.6
					c0,0.1,0,0.1,0,0.2c0,0.1,0,0.1-0.1,0.1l-0.4,0.2c0,0-0.1,0-0.1,0c0,0,0-0.1,0-0.1v-0.6c0-0.1,0-0.1,0-0.2c0-0.1,0-0.1,0.1-0.1
					L150.8,117.4z M150.9,122.4c0,0.1,0,0.1,0,0.2c0,0.1,0,0.1-0.1,0.1l-0.3,0.2c0,0-0.1,0-0.1,0c0,0,0-0.1,0-0.1v-3.4
					c0-0.1,0-0.1,0-0.2c0-0.1,0-0.1,0.1-0.1l0.3-0.2c0,0,0.1,0,0.1,0c0,0,0,0.1,0,0.1V122.4z"/>
				<path id="XMLID_1026_" class="st58" d="M153.7,120.8c0,0.1,0,0.1,0,0.2c0,0.1,0,0.1-0.1,0.1l-0.3,0.2c0,0-0.1,0-0.1,0
					c0,0,0-0.1,0-0.1v-1.9c0-0.3,0-0.5-0.1-0.6c-0.1-0.1-0.2-0.2-0.4-0.1c-0.1,0.1-0.3,0.2-0.3,0.5c-0.1,0.2-0.1,0.5-0.1,0.8v1.9
					c0,0.1,0,0.1,0,0.2c0,0.1,0,0.1-0.1,0.1l-0.3,0.2c0,0-0.1,0-0.1,0c0,0,0-0.1,0-0.1v-3.4c0-0.1,0-0.1,0-0.2c0-0.1,0-0.1,0.1-0.1
					l0.3-0.2c0,0,0.1,0,0.1,0c0,0,0,0.1,0,0.1v0.2c0.1-0.2,0.2-0.3,0.3-0.5c0.1-0.1,0.2-0.2,0.3-0.3c0.2-0.1,0.3-0.1,0.4-0.1
					c0.1,0,0.2,0.1,0.3,0.2c0.1,0.1,0.1,0.3,0.1,0.5c0,0.2,0,0.4,0,0.6V120.8z"/>
			</g>
			<g id="XMLID_641_">
				<path id="XMLID_716_" class="st66" d="M180.5,105.3l-5.2,3l0.8-7.2c-0.6-0.3-1-1.1-1-2.3c0-2.1,1.2-4.4,2.8-5.3
					c1.5-0.9,2.8,0.1,2.8,2.1c0,1.2-0.4,2.4-1,3.4L180.5,105.3z"/>
				<polygon id="XMLID_715_" class="st67" points="180.5,105.3 176,102.7 175.3,108.3 				"/>
				<path id="XMLID_643_" class="st67" d="M177.9,93.5c-1,0.6-1.9,1.8-2.4,3.2l4.2,2.4l0,0c0.6-1,1-2.3,1-3.4
					C180.7,93.5,179.5,92.6,177.9,93.5z"/>
			</g>
		</g>
		<g id="XMLID_979_">
			<g id="XMLID_1560_">
				<g id="XMLID_1570_">
					<path id="XMLID_2351_" class="st51" d="M152.9,69.4c-1.8-1-4.2-0.9-6.9,0.7c-5.4,3.1-9.7,10.7-9.7,16.9c0,3.1,1.1,5.3,2.9,6.3
						c0.5,0.3,3,1.7,3.4,2c1.8,1,4.2,0.9,6.9-0.7c5.4-3.1,9.7-10.7,9.7-16.9c0-3.1-1.1-5.3-2.9-6.3"/>
					<path id="XMLID_2399_" class="st51" d="M149.4,72.1c-5.4,3.1-9.7,10.7-9.7,16.9c0,6.2,4.4,8.7,9.7,5.6
						c5.4-3.1,9.7-10.7,9.7-16.9C159.2,71.5,154.8,69,149.4,72.1z"/>
					<path id="XMLID_999_" class="st56" d="M154.8,85.9v0.7c-1.4,2.4-3.3,4.4-5.4,5.6c-2.1,1.2-4,1.3-5.4,0.6v-1.5
						c0-2.8,1.9-6.2,4.4-7.6l1.4-0.8c1.3-0.7,2.5-0.8,3.4-0.3C154.2,83.2,154.8,84.4,154.8,85.9z"/>
					<path id="XMLID_1014_" class="st68" d="M152.9,69.4l3.5,2c-1.8-1-4.2-0.9-6.9,0.7c-3.5,2-6.6,6-8.3,10.2l-3.5-2
						c1.7-4.2,4.8-8.2,8.3-10.2C148.7,68.5,151.1,68.4,152.9,69.4z"/>
					<path id="XMLID_1016_" class="st69" d="M142.4,95.2c-0.6-0.4-2.9-1.7-3.3-1.9c-1.8-1-2.9-3.2-2.9-6.3l3.5,2
						C139.7,92,140.7,94.1,142.4,95.2z"/>
					<path id="XMLID_995_" class="st70" d="M137.7,80.3l3.5,2c-0.9,2.2-1.4,4.5-1.4,6.7v0l-3.5-2C136.2,84.8,136.8,82.5,137.7,80.3z
						"/>
				</g>
			</g>
			<g id="XMLID_738_">
				<g id="XMLID_980_">
					<path id="XMLID_983_" class="st62" d="M148.2,82.6c-0.3,0-0.7-0.1-0.9-0.2c-0.7-0.4-1-1.1-1-2.1c0-1.8,1.2-3.9,2.8-4.8v0
						c0.8-0.5,1.7-0.6,2.3-0.2c0.7,0.4,1,1.1,1,2.1c0,1.8-1.2,3.9-2.8,4.8C149.1,82.4,148.6,82.6,148.2,82.6z"/>
				</g>
				<g id="XMLID_764_">
					<path id="XMLID_765_" class="st62" d="M153.3,82.6c-1-0.6-2.2-0.5-3.4,0.3l-1.4,0.8c-2.5,1.4-4.4,4.8-4.4,7.6v1.5
						c1.4,0.8,3.3,0.6,5.4-0.6c2.1-1.2,4-3.3,5.4-5.6v-0.7C154.8,84.4,154.2,83.2,153.3,82.6z"/>
				</g>
			</g>
		</g>
	</g>
	<g id="Plants_10_">
		<g id="XMLID_860_">
			<g id="XMLID_864_">
				<path id="XMLID_866_" class="st51" d="M262.4,174.5c0,0,0.7-6.2,3.8-11c3.1-4.8,7.3-7.8,11.3-8.1s7.1,3.3,2.9,5.8
					c-4.2,2.5-11.7,5-15.2,14.4L262.4,174.5z"/>
				<path id="XMLID_865_" class="st70" d="M262.4,174.5c0,0,0.7-6.2,3.8-11c3.1-4.8,7.3-7.8,11.3-8.1s7.1,3.3,2.9,5.8
					c-4.2,2.5-11.7,5-15.2,14.4L262.4,174.5z"/>
			</g>
			<g id="XMLID_862_">
				<path id="XMLID_863_" class="st62" d="M263.5,172.8C263.5,172.8,263.5,172.8,263.5,172.8c-0.1-0.1-0.2-0.2-0.2-0.3
					c4.2-10.3,12.1-14.6,15.7-15.4c0.1,0,0.2,0,0.3,0.2c0,0.1,0,0.2-0.2,0.3c-3.5,0.8-11.3,5-15.4,15.1
					C263.7,172.8,263.6,172.9,263.5,172.8z"/>
			</g>
		</g>
		<g id="XMLID_259_">
			<g id="XMLID_857_">
				<g id="XMLID_858_">
					<path id="XMLID_859_" class="st51" d="M284.6,173c-0.4,0.8-1.2,1.2-2.1,1.6c-0.8,0.3-1.7,0.7-2.2,1.4c-0.9,1.5,0.6,3.7-0.4,5.2
						c-0.4,0.6-1.1,1-1.9,1.1c-0.6,0.1-1.2,0.1-1.9,0.2c-0.3,0-0.6,0-0.9-0.1c-0.8-0.1-1.8-0.2-2.5,0.3c-1.2,0.7-1.6,2.2-2.3,3.4
						c-0.9,1.4-2.5,2.4-4.1,2.6c-0.6,0.1-1.6,0.2-2.1-0.1c0,0-0.1,0-0.1-0.1c0,0,0,0,0,0c-0.1-0.1-0.2-0.2-0.2-0.3c0,0,0,0,0,0
						c-0.2-0.8,0.1-1.6,0.2-2.5c0-0.1,0-0.1,0-0.1c0-1-0.1-1.9-0.1-2.9c0-1.8-0.1-3.5-0.1-5.3c0-1.1-0.1-2.4,0.4-3.5
						c0.5-1.2,1.9-1.2,2.4-2.4c0.2-0.5,0.3-1,0.5-1.4c0.6-1.4,2-2.4,3.5-2.4c2.3-0.1,4.4,1.8,6.7,1.6c0.6,0,1.2-0.2,1.8-0.3
						c1.9-0.4,4.1,0.2,5.1,1.8C284.7,171.4,285,172.2,284.6,173z"/>
				</g>
			</g>
			<g id="XMLID_737_">
				<path id="XMLID_855_" class="st62" d="M263.7,184.5C263.7,184.5,263.7,184.5,263.7,184.5c-0.1,0-0.2-0.1-0.2-0.2
					c3.2-12.1,15.9-13.8,18.9-13.6c0.1,0,0.2,0.1,0.2,0.2c0,0.1-0.1,0.2-0.2,0.2c-2.9-0.2-15.3,1.5-18.5,13.3
					C263.9,184.4,263.8,184.5,263.7,184.5z"/>
			</g>
			<g id="XMLID_733_">
				<path id="XMLID_736_" class="st62" d="M277.8,178.3c0,0-0.1,0-0.1-0.1c0,0-3.3-3.2-8.7-2.4c-0.1,0-0.2-0.1-0.2-0.2
					c0-0.1,0.1-0.2,0.2-0.2c5.6-0.8,9,2.5,9,2.6c0.1,0.1,0.1,0.2,0,0.3C278,178.3,277.9,178.4,277.8,178.3z"/>
			</g>
		</g>
	</g>
	<g id="Clouds_1_">
		<path id="XMLID_1526_" class="st71" d="M233.2,28.7l1.7,0.6v-3.7c0-2.9,2.4-3.7,4.9-2.2l0,0c2.6,1.5,4.6,5.1,4.6,8V32
			c0.6-0.2,1.3-0.1,2.1,0.3h0c1.8,1.1,3.3,3.6,3.3,5.8v0.2l2.4,1.4c1.2,0.7,2.2,2.4,2.2,3.8c0,1.4-1,2-2.2,1.3l-19-11
			c-1.2-0.7-2.2-2.4-2.2-3.8C231,28.6,231.9,28,233.2,28.7z"/>
		<path id="XMLID_1523_" class="st71" d="M255.8,25.8l3.1,1.8c0-0.1,0-0.3,0-0.4v-0.9c0-1.6,1.1-2.2,2.5-1.4
			c0.6,0.3,1.1,0.8,1.5,1.4c0.2-2,1.8-2.7,3.7-1.6c2,1.2,3.7,4.1,3.7,6.4v1.3c0,0.6-0.1,1.1-0.3,1.5l2.5,1.5
			c0.8,0.4,1.4,1.5,1.4,2.4c0,0.9-0.6,1.2-1.4,0.8l-16.6-9.6c-0.8-0.4-1.4-1.5-1.4-2.4C254.4,25.7,255,25.3,255.8,25.8z"/>
	</g>
	<g id="Character_3_">
		<g id="XMLID_729_">
			<g id="XMLID_1087_">
				<path id="XMLID_1144_" class="st72" d="M243.9,106.3c-2.2,3.8-4.4,7-5.9,8.6c-2.9,1.3-9.6,3.4-12.2,3.7
					c-0.5,0.1-0.9-0.1-1.3-0.3c-1-0.7-1.8-0.8-2.9-1.2c-0.9-0.3-1.2-0.7-1.4-0.5c-0.2,0.2-0.4,0.8,0.1,1.4c0.3,0.3,0.7,0.6,1.4,1
					c0,0-1.9,0.5-3.6,0.1c-2.3-0.6-3.3,0.5-1.8,3c0.6,0.9,2.7,2.3,7.1,1.9c1.3-0.1,3.1-0.2,4.7-0.6c4.2-0.9,8.9-1.8,11.8-2.6
					c0.7-0.2,2-1.1,2.8-1.9c4.8-5.5,6.5-9.5,8.6-13l-0.2-5.8C247.6,99.8,245.8,103.2,243.9,106.3z"/>
				<path id="XMLID_1143_" class="st73" d="M251.6,99.8c0,0-3-0.6-5.3,2.2c-2.4,3-6.5,10.3-6.5,10.3s1.4,3.6,5.1,4.2l5.9-8
					C250.8,108.6,253.6,103,251.6,99.8z"/>
				<g id="XMLID_1136_">
					<rect id="XMLID_1142_" x="260.6" y="181.3" class="st72" width="3.9" height="6.9"/>
					<polygon id="XMLID_1141_" class="st72" points="251.1,180.9 247.2,181.1 247,173.8 251.1,173.6 					"/>
					<path id="XMLID_1140_" class="st73" d="M265,121.8c0,3.8-0.6,34.7-0.6,34.7c0.1,1.1,1.1,3.1,0.9,7.4
						c-0.3,5.8-0.7,20.9-0.7,20.9s-1.9,1.1-4.3,0.1c0,0-3.1-21.2-3.8-26.9c-0.6-5-2.1-21.5-2.1-21.5l-2.1,19.5c0,0,0.7,3,0.5,6.4
						c-0.2,2.6-1.4,16.4-1.4,16.4s-1.8,1.3-4.5,0.4c0,0-2.2-20.7-2.2-23.1c-0.1-2.8,1.3-34.2,1.3-34.2L265,121.8z"/>
					<path id="XMLID_1139_" class="st55" d="M260.6,186.2v-0.6c-0.4,0.2-1.2,3.6-2.8,5c-1.2,1.2-2.9,2.5-3.3,3.8
						c-0.4,1.3,2.3,2.1,3.4,1.9c1.3-0.2,3.6-1.2,4.2-2.1c0.6-0.9,0.8-2.2,1.3-2.9c0.5-0.7,1.5-1.4,1.8-2.2c0.1-0.4,0-1.3-0.2-2.1
						c-0.2-0.7-0.4-1.5-0.6-1.4c0,0.1,0,0.4,0,0.4c-0.3,0.3-1.1,0.6-1.9,0.7C261.9,186.7,260.6,186.6,260.6,186.2z"/>
					<path id="XMLID_1138_" class="st55" d="M247.2,179.8c-0.2,0-0.4,0.3-0.8,0.8c-0.5,0.6-1.4,1.3-2.3,1.7
						c-1.4,0.8-4.3,1.9-5.5,2.5c-0.8,0.4-0.8,1.4,0.1,1.9c0.8,0.6,2.8,1,5.2,0.4c1.3-0.3,3-1.5,4.1-1.5c1.1,0.1,3.1,0.1,3.9-0.5
						c0.8-0.6,0.5-1.8,0.3-2.8c-0.2-1.1-0.5-2.9-0.9-2.8v0.4c-0.5,0.7-2.9,1-3.9,0.5L247.2,179.8z"/>
					<path id="XMLID_1137_" class="st55" d="M254.3,136.4c0,0-3.1-0.9-5.4-3.2c0,0,1,2,4.1,3.9l-0.7,17.4L254.3,136.4z"/>
				</g>
				<g id="XMLID_1122_">
					<path id="XMLID_1124_" class="st51" d="M262.8,100.4c0,0,3.2,0.7,3,6.5l-0.7,9.2l0,13.7c-2.8,3.2-15.4,3-19.7-0.3
						c0,0,0.5-16.3,0.8-22.5c0.2-4.4,1.2-6.7,5.6-7.2l5.4,0.2L262.8,100.4z"/>
				</g>
				<g id="XMLID_1094_">
					<path id="XMLID_1116_" class="st55" d="M258.8,88.4c0,3.3-2.6,6-5.7,6c-3.2,0-5-2.8-5.7-6c-1.3-5.9,2.6-6,5.7-6
						S258.8,85.1,258.8,88.4z"/>
					<g id="XMLID_1102_">
						<path id="XMLID_1115_" class="st55" d="M261.7,90.8c0,0-0.9,4.3-1.2,5c-0.4,0.7-1.1,0.9-1.1,0.9l0.1-3L261.7,90.8z"/>
						<path id="XMLID_1108_" class="st55" d="M260.6,84.7c0,0,0.6-0.2,1.3,0.9c0.6,0.9,0.7,2.9-0.2,5.3L260,91L260.6,84.7z"/>
						<path id="XMLID_1330_" class="st55" d="M261.2,85.5l2,0c0-0.6-0.4-1.1-0.9-1.1S261.2,85,261.2,85.5z"/>
						<path id="XMLID_1286_" class="st55" d="M261.4,85.1l1.5-1.4c-0.4-0.4-1-0.5-1.4-0.1C261.1,84,261.1,84.6,261.4,85.1z"/>
						<path id="XMLID_1107_" class="st72" d="M259.5,91c0.3,0.2,0.8-0.5,1.2-0.9c0.4-0.4,1.7-0.9,2.4,0.6c0.7,1.5-0.5,2.9-1.4,3.4
							c-1.7,0.9-2.3-0.4-2.3-0.4l-0.1,6.8c-2.4,3.7-7.9,3.6-5.9-0.2l0-2.1c0,0-1.6,0.3-2.4,0.1c-1.3-0.2-2.2-1.3-2.6-2.8
							c-0.7-2.4-0.9-4.4-0.3-9.1c0.6-5.2,6.4-5.3,9.6-3.2C260.7,85.3,259.5,91,259.5,91z"/>
						<path id="XMLID_1106_" class="st55" d="M252.3,85.7c1.4-0.1,2.8-0.4,4.2-0.5c0.3,0,0.6,0,0.9,0c1.1,0.3,0.9,1.5,1.1,2.4
							c0.3,1.5,0.5,4,1.1,4c0.2,0,0.8-1.1,1.2-1.5c0.3-0.3,0.3-0.8,0.4-1.1c0.1-0.6,0.2-1.2,0.2-1.9c0-0.5,0.1-1.1,0.1-1.6
							c0-0.6,0-1.2-0.1-1.8c-0.1-0.5-0.4-0.9-0.7-1.3c0,0-0.1-0.1-0.1-0.1c-0.7-0.7-1.6-1.3-2.5-1.7c-1.3-0.5-2.8-0.8-4.2-0.9
							c-1.4-0.1-2.9-0.2-4.3-0.5c-0.1,0-0.2,0-0.2,0c-0.1,0-0.2,0.2-0.2,0.3c-0.1,0.7,0.2,1.4,0.7,1.7c-1,0.1-2.1-0.4-3-0.7
							c-0.2,0-0.3-0.1-0.5,0c-0.1,0.1-0.2,0.2-0.2,0.3c-0.1,0.2-0.1,0.5,0,0.8c0.1,0.8,0.4,1.5,0.8,2.1c0.7,0.9,1.8,1.7,2.9,1.9
							C250.6,85.8,251.4,85.8,252.3,85.7z"/>
						<path id="XMLID_1103_" class="st74" d="M253.4,98.3c0,0,3-0.6,4-1.2c0.7-0.4,1.3-1.1,1.4-1.5c0,0-0.2,0.9-0.8,1.8
							c-0.8,1-4.6,1.8-4.6,1.8L253.4,98.3z"/>
					</g>
					<g id="XMLID_1095_">
						<path id="XMLID_1101_" class="st55" d="M254.1,90.3c0,0.4,0.3,0.6,0.6,0.6c0.3,0,0.6-0.3,0.6-0.6c0-0.4-0.3-0.6-0.6-0.6
							C254.4,89.6,254.1,89.9,254.1,90.3z"/>
						<path id="XMLID_1100_" class="st55" d="M255.1,87.7l1.3,0.7c0.2-0.4,0.1-0.9-0.3-1.1C255.7,87.2,255.3,87.3,255.1,87.7z"/>
						<path id="XMLID_1099_" class="st74" d="M253.7,94.6l-1.4,0.5c0.1,0.4,0.5,0.6,0.9,0.5C253.6,95.4,253.8,95,253.7,94.6z"/>
						<path id="XMLID_1098_" class="st55" d="M248.6,88.2l1.2-0.9c-0.2-0.3-0.7-0.4-1-0.2C248.5,87.4,248.4,87.9,248.6,88.2z"/>
						<path id="XMLID_1097_" class="st55" d="M249.1,90.1c0,0.4,0.3,0.6,0.6,0.6c0.3,0,0.6-0.3,0.6-0.6c0-0.4-0.3-0.6-0.6-0.6
							C249.4,89.4,249.1,89.7,249.1,90.1z"/>
						<polygon id="XMLID_1096_" class="st74" points="252.3,89.6 252.3,93.4 250.1,92.9 						"/>
					</g>
				</g>
			</g>
		</g>
		<g id="XMLID_931_">
			<g id="XMLID_975_">
				<polyline id="XMLID_861_" class="st56" points="201.4,121.2 204.7,119.3 206.1,117.7 202.7,119.6 201.4,121.2 				"/>
				<polyline id="XMLID_934_" class="st61" points="201.4,121.2 204.7,119.3 206.1,117.7 202.7,119.6 201.4,121.2 				"/>
			</g>
			<g id="XMLID_936_">
				<polyline id="XMLID_974_" class="st56" points="210.5,126.4 213.8,124.5 216.6,122 213.2,124 210.5,126.4 				"/>
				<polyline id="XMLID_935_" class="st61" points="210.5,126.4 213.8,124.5 216.6,122 213.2,124 210.5,126.4 				"/>
			</g>
			<path id="XMLID_971_" class="st75" d="M238.7,133c0.7,0.9,1.3,2.3,1.4,3.6C239.4,135.7,238.8,134.4,238.7,133z M246.5,133.1
				c-1.1-7.6-5.2-15.1-10.1-18c-2.3-1.4-4.5-1.4-6.2-0.4c-0.5,0.3-2.4,1.4-3.1,1.8c-0.1,0-0.1,0.1-0.2,0.1c-0.1,0.1-0.3,0.2-0.4,0.3
				c-0.3,0.2-0.5,0.4-0.7,0.6c0,0-0.1,0.1-0.1,0.1c-0.1,0.1-0.2,0.2-0.3,0.3c-0.1,0.1-0.2,0.3-0.3,0.4c-0.2,0.3-0.4,0.6-0.6,0.9
				c-0.1,0.2-0.2,0.3-0.3,0.5L196.8,104l-3.3,1.9v2.1l0.3,0.2l0.3,0.2v0.4l-0.5,0.3v1.2l4,8.5l4,2.3l1.3-1.6l3.5,2.1l2,3.4l2.2,1.3
				l2.8-2.5l3.4,2l1.1,4.7l5.7,3.3c0.3,1.2,0.7,2.4,1.1,3.6c0,0.1,0.1,0.2,0.1,0.4c1.9,5,4.9,9.3,8.3,11.2c0.4,0.3,0.9,0.5,1.3,0.6
				c0.2,0.1,0.5,0.2,0.7,0.2c0.2,0.1,0.4,0.1,0.6,0.1c0.7,0.1,1.4,0.1,2,0c0.1,0,0.2,0,0.3-0.1c0.1,0,0.3-0.1,0.4-0.1
				c0.1,0,0.2-0.1,0.3-0.1c0.1,0,0.2-0.1,0.3-0.1c0.1,0,0.2-0.1,0.3-0.1c0,0,0.1-0.1,0.1-0.1c0,0,0,0,0.1,0c0.8-0.4,2.6-1.5,3.1-1.8
				c2.5-1.5,4.2-5.2,4.2-10.4C246.8,135.8,246.7,134.5,246.5,133.1z"/>
			<path id="XMLID_1041_" class="st51" d="M237.8,139.5c-1.3-0.8-2.4-3-2.4-5c0-2,1.1-3,2.4-2.3c1.3,0.8,2.4,3,2.4,5
				C240.1,139.2,239.1,140.2,237.8,139.5z M243.1,135.1c-1.1-7.6-5.2-15.1-10.1-18c-2.3-1.3-4.3-1.4-6-0.5c-0.1,0-0.1,0.1-0.2,0.1
				c-0.1,0.1-0.3,0.2-0.4,0.3c-0.3,0.2-0.5,0.4-0.7,0.6c0,0-0.1,0.1-0.1,0.1c-0.1,0.1-0.2,0.2-0.3,0.3c-0.1,0.1-0.2,0.3-0.3,0.4
				c-0.2,0.3-0.4,0.6-0.6,0.9c-0.1,0.2-0.2,0.3-0.3,0.5c-0.5,0.9-0.8,2-1.1,3.2L193.4,106v2.1l0.3,0.2l0.3,0.2v0.4l-0.5,0.3v1.2
				l4,8.5l4,2.3l1.3-1.6l3.5,2.1l2,3.4l2.2,1.3l2.8-2.5l3.4,2l1.1,4.7l5.7,3.3c0.3,1.2,0.7,2.4,1.1,3.6c0,0.1,0.1,0.2,0.1,0.4
				c1.9,5,4.9,9.3,8.3,11.2c0.4,0.3,0.9,0.5,1.3,0.6c0.2,0.1,0.5,0.2,0.7,0.2c0.2,0.1,0.4,0.1,0.6,0.1c0.7,0.1,1.4,0.1,2,0
				c0.1,0,0.2,0,0.3-0.1c0.1,0,0.3-0.1,0.4-0.1c0.1,0,0.2-0.1,0.3-0.1c0.1,0,0.2-0.1,0.3-0.1c0.1,0,0.2-0.1,0.3-0.1
				c0,0,0.1-0.1,0.1-0.1c0,0,0,0,0.1,0c2.4-1.5,4-5.2,4-10.3C243.4,137.8,243.3,136.4,243.1,135.1z"/>
			<path id="XMLID_1044_" class="st61" d="M240.1,137.2c0,2-1.1,3-2.4,2.3c-1.3-0.8-2.4-3-2.4-5c0-2,1.1-3,2.4-2.3
				c0.3,0.2,0.7,0.5,1,0.9c0.1,1.3,0.6,2.7,1.4,3.6C240.1,136.8,240.1,137,240.1,137.2z"/>
			<path id="XMLID_1047_" class="st68" d="M246.8,137.2c0,5.2-1.6,8.9-4.2,10.4c-0.5,0.3-2.4,1.4-3.1,1.8c2.4-1.5,4-5.2,4-10.3
				c0-1.3-0.1-2.7-0.3-4c-1.1-7.6-5.2-15.1-10.1-18c-2.3-1.3-4.3-1.4-6-0.5c0.7-0.4,2.6-1.5,3.1-1.8c1.7-1,3.9-1,6.2,0.4
				c4.9,2.8,9,10.3,10.1,18C246.7,134.5,246.8,135.8,246.8,137.2z"/>
			<g id="XMLID_722_">
				<path id="XMLID_727_" class="st51" d="M243.4,139.1c0,5.1-1.6,8.8-4,10.3c0.8-0.4,2.6-1.5,3.1-1.8c2.5-1.5,4.2-5.2,4.2-10.4
					c0-0.2,0-0.4,0-0.6c-1.1,0.7-2.3,1.3-3.3,1.9C243.4,138.7,243.4,138.9,243.4,139.1z"/>
				<path id="XMLID_653_" class="st70" d="M243.4,139.1c0,5.1-1.6,8.8-4,10.3c0.8-0.4,2.6-1.5,3.1-1.8c2.5-1.5,4.2-5.2,4.2-10.4
					c0-0.2,0-0.4,0-0.6c-1.1,0.7-2.3,1.3-3.3,1.9C243.4,138.7,243.4,138.9,243.4,139.1z"/>
			</g>
			<g id="XMLID_724_">
				<polygon id="XMLID_1050_" class="st63" points="223.2,125.2 223.2,126.3 193.4,109.2 194,108.8 194,108.4 				"/>
				<polygon id="XMLID_1046_" class="st63" points="223.2,125.7 223.2,126.3 193.4,109.2 194,108.8 194,108.8 				"/>
			</g>
			
				<ellipse id="XMLID_1030_" transform="matrix(0.956 -0.2934 0.2934 0.956 -28.7947 74.2444)" class="st76" cx="233.1" cy="133.1" rx="7.8" ry="14.7"/>
			<path id="XMLID_1045_" class="st68" d="M224.1,119.8c-0.5,0.9-0.8,2-1.1,3.2L193.4,106l3.3-1.9L224.1,119.8z"/>
		</g>
		<g id="XMLID_867_">
			<path id="XMLID_1093_" class="st72" d="M262.6,121.5c1.6-2.9,3.3-9.5,4.2-12.9c1.3-4.7-0.8-7.7-3.1-7.8
				c-1.4,0.2-6.2,17.5-6.2,17.5c-0.5,0.4-7.7,4.1-10,5c-0.4,0.2-0.9,0.2-1.3,0c-1.1-0.4-1.9-0.3-3-0.4c-0.9-0.1-1.3-0.4-1.4-0.2
				c-0.1,0.2-0.2,0.8,0.4,1.3c0.3,0.2,0.8,0.4,1.5,0.6c0,0-1.2,0.4-2.9,0.4c-2.2,0-3,0.9-1.3,3.2c1.1,1.4,2.8,1.9,6.7,0.5
				c1.1-0.4,2.7-1.1,4.1-1.7c2.9-1.1,3.7-1.2,6-1.9C259.6,123.9,261.9,122.8,262.6,121.5z"/>
			<path id="XMLID_335_" class="st73" d="M262.8,100.4c1.4,0.2,2.7,0.5,3.5,1.6c0.8,1.1,1.4,2.6,0.7,6.9c-0.8,4.2-2.4,8.7-2.4,8.7
				s-3.2,1.3-6.5-2.1l2.3-8.9C260.3,106.6,260.7,100.8,262.8,100.4z"/>
		</g>
	</g>
</g>
</svg>
